<svg width="32" height="32" viewBox="0 0 32 32" fill="none" xmlns="http://www.w3.org/2000/svg">
<path d="M30.3498 17.2065C30.9706 16.5858 31.9916 17.0112 31.8889 17.883C31.483 21.3296 29.9581 24.6693 27.3137 27.3137C24.6693 29.9581 21.3296 31.483 17.883 31.8889C17.0112 31.9916 16.5858 30.9706 17.2065 30.3498L30.3498 17.2065Z" fill="white"/>
<path d="M27.4384 7.39004C28.0763 6.75218 29.1344 6.81562 29.6097 7.58235C29.7932 7.87836 29.9661 8.17905 30.1284 8.48389C30.8475 9.83411 30.4392 11.4604 29.3574 12.5421L12.5421 29.3574C11.4604 30.4391 9.83413 30.8475 8.4839 30.1284C8.17906 29.9661 7.87837 29.7932 7.58236 29.6097C6.81563 29.1344 6.7522 28.0762 7.39006 27.4384L27.4384 7.39004Z" fill="white"/>
<path d="M4.68631 4.68629C10.0412 -0.668616 18.2468 -1.43352 24.4171 2.39007C25.1839 2.86523 25.2478 3.92375 24.61 4.56162L4.56163 24.61C3.92377 25.2478 2.86525 25.1839 2.39009 24.4171C-1.4335 18.2468 -0.668601 10.0412 4.68631 4.68629Z" fill="white"/>
</svg>
