<svg width="62" height="24" viewBox="0 0 62 24" fill="none" xmlns="http://www.w3.org/2000/svg">
<path fill-rule="evenodd" clip-rule="evenodd" d="M14.5869 20.0465C15.1438 19.4035 15.5684 18.6587 15.8607 17.8136C16.1521 16.9679 16.2982 16.0876 16.2982 15.1708C16.2982 14.255 16.1484 13.3787 15.8468 12.5418C15.5454 11.705 15.1164 10.9692 14.5598 10.3352C14.0027 9.70083 13.328 9.19904 12.5337 8.82904C11.7397 8.45904 10.8495 8.27428 9.8639 8.27428C8.85975 8.27428 8.01053 8.45904 7.31755 8.82904C6.62353 9.19904 6.08524 9.60485 5.70214 10.0447H5.64748V1.82608H1.15649V21.8038H5.29145V20.0858H5.3461C5.78412 20.7557 6.40904 21.2711 7.22165 21.6319C8.03374 21.9932 8.8961 22.1738 9.80925 22.1738C10.8314 22.1738 11.7433 21.9793 12.5477 21.5922C13.3502 21.205 14.0298 20.6895 14.5869 20.0465ZM11.1509 12.8588C11.4247 13.1671 11.6299 13.5237 11.7668 13.9288C11.9037 14.3348 11.9722 14.7481 11.9722 15.1708C11.9722 15.5938 11.9037 16.0123 11.7668 16.4263C11.6299 16.8406 11.4247 17.2061 11.1509 17.5229C10.8773 17.8399 10.5391 18.0955 10.1377 18.289C9.73577 18.4834 9.27069 18.5799 8.74116 18.5799C8.22993 18.5799 7.77335 18.4834 7.3722 18.289C6.97003 18.0955 6.62766 17.8399 6.34536 17.5229C6.06177 17.2061 5.8429 16.8445 5.68796 16.4392C5.53276 16.0344 5.45567 15.6201 5.45567 15.1969C5.45567 14.774 5.53276 14.3609 5.68796 13.9554C5.8429 13.5503 6.06177 13.189 6.34536 12.872C6.62766 12.5549 6.97003 12.2996 7.3722 12.1059C7.77335 11.9124 8.22993 11.8147 8.74116 11.8147C9.27069 11.8147 9.73577 11.9124 10.1377 12.1059C10.5391 12.2996 10.8773 12.5507 11.1509 12.8588Z" fill="black"/>
<path d="M22.5884 21.8039H18.0159V1.82618H22.5884V21.8039Z" fill="black"/>
<path d="M28.9187 5.38052C28.782 5.6712 28.5995 5.9221 28.3708 6.13346C28.1427 6.34532 27.8691 6.51242 27.55 6.63525C27.2303 6.75908 26.8967 6.8205 26.551 6.8205C25.8198 6.8205 25.2088 6.58726 24.7151 6.12028C24.2222 5.65355 23.9763 5.09457 23.9763 4.44259C23.9763 4.12555 24.0399 3.82169 24.1678 3.53125C24.2952 3.24032 24.4785 2.98918 24.7151 2.77782C24.9523 2.56596 25.2269 2.39439 25.5375 2.2626C25.8472 2.13006 26.1849 2.06442 26.551 2.06442C26.8967 2.06442 27.2303 2.12609 27.55 2.24917C27.8691 2.37226 28.1427 2.5401 28.3708 2.75121C28.5995 2.96257 28.782 3.21372 28.9187 3.50465C29.0558 3.79508 29.1247 4.10814 29.1247 4.44259C29.1247 4.77728 29.0558 5.08984 28.9187 5.38052Z" fill="black"/>
<path d="M28.7956 21.8039H24.3046V8.64414H28.7956V21.8039Z" fill="black"/>
<path d="M39.4666 21.8037V14.616C39.4666 14.2458 39.4344 13.8939 39.3707 13.5587C39.3068 13.2243 39.2018 12.9294 39.0557 12.674C38.9092 12.4184 38.7038 12.2162 38.4398 12.066C38.1745 11.9163 37.8414 11.8417 37.4403 11.8417C37.0386 11.8417 36.6867 11.9163 36.3861 12.066C36.0847 12.2162 35.8336 12.4228 35.6325 12.6869C35.4322 12.9512 35.2816 13.2556 35.1811 13.5987C35.0808 13.9426 35.0305 14.2987 35.0305 14.6687V21.8037H30.5127V8.64399H34.8655V10.4674H34.9212C35.0852 10.1852 35.2997 9.90792 35.5645 9.63514C35.829 9.36186 36.1396 9.12887 36.4959 8.93442C36.8512 8.74146 37.2394 8.58257 37.6597 8.45899C38.0791 8.33615 38.5261 8.27423 39.0008 8.27423C39.9134 8.27423 40.6891 8.43238 41.3285 8.74942C41.9671 9.06671 42.4827 9.47649 42.8758 9.97854C43.2682 10.4808 43.5505 11.0577 43.7243 11.7094C43.8975 12.3612 43.9847 13.0129 43.9847 13.6649V21.8037H39.4666Z" fill="black"/>
<path fill-rule="evenodd" clip-rule="evenodd" d="M56.709 20.0857V21.8036H60.8435V1.8262H56.353V10.0446H56.2981C55.9147 9.60498 55.3764 9.19917 54.6824 8.82916C53.9884 8.45891 53.1394 8.27416 52.136 8.27416C51.1502 8.27416 50.26 8.45891 49.4662 8.82916C48.6724 9.19917 47.997 9.70071 47.4401 10.335C46.8832 10.9691 46.4545 11.7049 46.1531 12.5416C45.8523 13.3789 45.7012 14.2551 45.7012 15.1709C45.7012 16.0875 45.8471 16.9677 46.1395 17.8134C46.431 18.6589 46.8554 19.4036 47.4123 20.0466C47.9689 20.6897 48.649 21.2049 49.4523 21.5923C50.2553 21.9792 51.1682 22.1739 52.1907 22.1739C53.1033 22.1739 53.966 21.9931 54.7786 21.6321C55.5906 21.2713 56.2161 20.7556 56.6544 20.0857H56.709ZM55.6548 12.8718C55.9377 13.1891 56.1565 13.5504 56.3115 13.9555C56.4667 14.3611 56.5445 14.7741 56.5445 15.197C56.5445 15.62 56.4667 16.0343 56.3115 16.4391C56.1565 16.8447 55.9377 17.206 55.6548 17.523C55.371 17.84 55.0289 18.0954 54.6272 18.2891C54.2261 18.4836 53.7695 18.5798 53.259 18.5798C52.7293 18.5798 52.2637 18.4836 51.862 18.2891C51.4601 18.0954 51.1234 17.84 50.8491 17.523C50.5748 17.206 50.3701 16.8404 50.2334 16.4262C50.0958 16.0122 50.028 15.5939 50.028 15.1709C50.028 14.748 50.0958 14.3347 50.2334 13.9286C50.3701 13.5238 50.5748 13.1673 50.8491 12.8589C51.1234 12.5506 51.4601 12.2997 51.862 12.1057C52.2637 11.9123 52.7293 11.8146 53.259 11.8146C53.7695 11.8146 54.2261 11.9123 54.6272 12.1057C55.0289 12.2997 55.371 12.5551 55.6548 12.8718Z" fill="black"/>
</svg>
