<svg width="24" height="24" viewBox="0 0 24 24" fill="none" xmlns="http://www.w3.org/2000/svg">
<path d="M11 16.5C11 17.0523 11.4477 17.5 12 17.5C12.5523 17.5 13 17.0523 13 16.5V13H16.5C17.0523 13 17.5 12.5523 17.5 12C17.5 11.4477 17.0523 11 16.5 11H13V7.5C13 6.94771 12.5523 6.5 12 6.5C11.4477 6.5 11 6.94771 11 7.5V11H7.50001C6.94773 11 6.50001 11.4477 6.50001 12C6.50001 12.5523 6.94773 13 7.50001 13H11V16.5ZM22 12C22 17.5228 17.5229 22 12 22C6.4772 22 2.00006 17.5228 2.00006 12C2.00006 6.47718 6.4772 2.00003 12 2.00003C17.5229 2.00003 22 6.47718 22 12ZM4.00001 12C4.00001 16.4183 7.58176 20 12 20C16.4183 20 20 16.4183 20 12C20 7.58176 16.4183 4.00003 12 4.00003C7.58175 4.00003 4.00001 7.58174 4.00001 12Z" fill="black"/>
</svg>
