<svg width="24" height="24" viewBox="0 0 24 24" fill="none" xmlns="http://www.w3.org/2000/svg">
<path d="M12.7071 15.2071C12.3166 15.5976 11.6834 15.5976 11.2929 15.2071L7.29289 11.2071C6.90237 10.8166 6.90237 10.1834 7.29289 9.7929C7.68342 9.4024 8.31658 9.4024 8.70711 9.7929L12 13.0858L15.2929 9.7929C15.6834 9.4024 16.3166 9.4024 16.7071 9.7929C17.0976 10.1834 17.0976 10.8166 16.7071 11.2071L12.7071 15.2071ZM12 2C17.5228 2 21.9999 6.4771 21.9999 12C21.9999 17.5228 17.5228 21.9999 12 21.9999C6.47714 21.9999 2 17.5228 2 12C2 6.4771 6.47714 2 12 2ZM12 4C7.58169 4 3.99995 7.5817 3.99995 12C3.99995 16.4182 7.58169 19.9999 12 19.9999C16.4182 19.9999 20 16.4182 20 11.9999C20 7.5817 16.4182 4 12 4Z" fill="black"/>
</svg>
