<svg width="24" height="24" viewBox="0 0 24 24" fill="none" xmlns="http://www.w3.org/2000/svg">
<path d="M8.79289 11.2928C8.60536 11.4803 8.5 11.7347 8.5 11.9999C8.5 12.2651 8.60536 12.5195 8.79289 12.707L12.7929 16.707C13.1834 17.0975 13.8166 17.0975 14.2071 16.707C14.5976 16.3165 14.5976 15.6833 14.2071 15.2928L10.9142 11.9999L14.2071 8.70705C14.5976 8.31652 14.5976 7.68336 14.2071 7.29283C13.8166 6.90231 13.1834 6.90231 12.7929 7.29283L8.79289 11.2928ZM12 21.9999C17.5228 21.9999 21.9999 17.5228 21.9999 11.9999C21.9999 6.47715 17.5228 2 12 2C6.47714 2 2 6.47715 2 11.9999C2 17.5228 6.47714 21.9999 12 21.9999ZM12 19.9999C7.58169 19.9999 3.99995 16.4182 3.99995 11.9999C3.99995 7.58171 7.58169 4 12 4C16.4182 4 20 7.58173 20 12C20 16.4182 16.4182 19.9999 12 19.9999Z" fill="black"/>
</svg>
