<svg width="24" height="24" viewBox="0 0 24 24" fill="none" xmlns="http://www.w3.org/2000/svg">
<path d="M7.00015 7C6.72401 7 6.50015 7.22386 6.50015 7.5V8.5C6.50015 8.77614 6.72401 9 7.00015 9H11.5001C11.7763 9 12.0001 8.77614 12.0001 8.5V7.5C12.0001 7.22386 11.7763 7 11.5001 7H7.00015ZM7.00015 11C6.72401 11 6.50015 11.2239 6.50015 11.5V12.5C6.50015 12.7761 6.72401 13 7.00015 13H17.0002C17.2763 13 17.5002 12.7761 17.5002 12.5L17.5002 11.5C17.5002 11.2239 17.2763 11 17.0002 11H7.00015ZM7.00015 15C6.72401 15 6.50015 15.2239 6.50015 15.5V16.5C6.50015 16.7761 6.72401 17 7.00015 17H14.0001C14.2763 17 14.5001 16.7761 14.5001 16.5V15.5C14.5001 15.2239 14.2763 15 14.0001 15H7.00015ZM2.50015 5.49988C2.50015 3.84301 3.84331 2.49986 5.50018 2.49988L18.5002 2.49999C20.157 2.5 21.5002 3.84315 21.5002 5.49999V18.5002C21.5002 20.1571 20.157 21.5002 18.5001 21.5002L5.50009 21.4999C3.84326 21.4999 2.50015 20.1567 2.50015 18.4999V5.49988ZM5.50015 4.50024C4.94787 4.50024 4.50015 4.94796 4.50015 5.50024V18.5001C4.50015 19.0524 4.94786 19.5001 5.50014 19.5001L18.5001 19.5002C19.0524 19.5002 19.5001 19.0525 19.5001 18.5002V5.50033C19.5001 4.94804 19.0524 4.50033 18.5002 4.50033L5.50015 4.50024Z" fill="black"/>
</svg>
