<svg width="24" height="24" viewBox="0 0 24 24" fill="none" xmlns="http://www.w3.org/2000/svg">
<path d="M13.3328 1.31004C13.5446 1.12034 13.8271 1.02977 14.1098 1.06098C18.746 1.57291 22.4272 5.25404 22.9392 9.89031C22.9704 10.173 22.8798 10.4555 22.6901 10.6673C22.5004 10.8791 22.2295 11.0001 21.9452 11.0001H14C13.4477 11.0001 13 10.5524 13 10.0001V2.05494C13 1.77061 13.121 1.49973 13.3328 1.31004ZM15 3.25177V9.00008H20.7483C20.0251 6.18968 17.8104 3.97499 15 3.25177ZM10.662 4.31235C10.8769 4.50218 11 4.77513 11 5.06189V13L18.9382 13.0001C19.225 13.0001 19.4979 13.1232 19.6877 13.3381C19.8776 13.5531 19.966 13.8392 19.9305 14.1237C19.3774 18.5642 15.59 22.0001 11 22.0001C6.02944 22.0001 2 17.9707 2 13.0001C2 8.41014 5.436 4.62261 9.8764 4.06955C10.161 4.03411 10.447 4.12253 10.662 4.31235ZM9 6.28951C6.10919 7.14954 4 9.82953 4 13.0001C4 16.8661 7.134 20.0001 11 20.0001C14.1706 20.0001 16.8505 17.891 17.7106 15.0001L9.99999 15C9.44771 15 9 14.5523 9 14V6.28951Z" fill="black"/>
</svg>
