<svg width="24" height="24" viewBox="0 0 24 24" fill="none" xmlns="http://www.w3.org/2000/svg">
<path d="M19 13C19.5523 13 20.0058 13.4495 19.9452 13.9984C19.4485 18.4991 15.6331 22 11 22C6.02944 22 2 17.9706 2 13C2 8.36692 5.50088 4.55149 10.0016 4.05477C10.5506 3.99419 11 4.44773 11 5.00002V10C11 11.6569 12.3431 13 14 13H19ZM13 2.00002C13 1.44773 13.449 0.994767 13.9986 1.04925C18.7241 1.51777 22.4823 5.27588 22.9508 10.0014C23.0053 10.551 22.5523 11 22 11H14C13.4477 11 13 10.5523 13 10V2.00002Z" fill="black"/>
</svg>
