<svg width="24" height="24" viewBox="0 0 24 24" fill="none" xmlns="http://www.w3.org/2000/svg">
<path d="M7.00003 7.00009C6.72389 7.00009 6.50003 7.22395 6.50003 7.50009V8.50009C6.50003 8.77624 6.72389 9.00009 7.00003 9.00009H11.5C11.7762 9.00009 12 8.77624 12 8.50009V7.50009C12 7.22395 11.7762 7.00009 11.5 7.00009H7.00003ZM7.00003 11.0001C6.72389 11.0001 6.50003 11.224 6.50003 11.5001V12.5001C6.50003 12.7762 6.72389 13.0001 7.00003 13.0001H17C17.2762 13.0001 17.5 12.7762 17.5 12.5001V11.5001C17.5 11.224 17.2762 11.0001 17 11.0001H7.00003ZM7.00002 15.0001C6.72388 15.0001 6.50003 15.2239 6.50003 15.5001V16.5001C6.50003 16.7762 6.72389 17.0001 7.00003 17.0001L14.0001 17C14.2762 17 14.5001 16.7762 14.5001 16.5L14.5 15.5C14.5 15.2239 14.2762 15 14 15L7.00002 15.0001ZM2.50004 5.50018C2.50004 3.84333 3.84317 2.50019 5.50002 2.50017L18.5 2.50006C20.1568 2.50005 21.5 3.84319 21.5 5.50005L21.5 18.5C21.5 20.1569 20.1569 21.5 18.5 21.5H5.50004C3.84318 21.5 2.50004 20.1569 2.50004 18.5V5.50018Z" fill="black"/>
</svg>
