<svg width="24" height="24" viewBox="0 0 24 24" fill="none" xmlns="http://www.w3.org/2000/svg">
<path d="M4.00008 10C4.00008 5.58172 7.5818 2 12.0001 2C16.4184 2 20.0001 5.58172 20.0001 10V11.8944C20.0001 12.0919 20.0585 12.2849 20.168 12.4492L21.7957 14.8906C22.6817 16.2197 21.729 18 20.1316 18H16.9001C16.4368 20.2822 14.419 22 12.0001 22C9.58112 22 7.56337 20.2822 7.1001 18H3.8686C2.27121 18 1.31842 16.2197 2.2045 14.8906L3.83213 12.4491C3.94164 12.2849 4.00008 12.0919 4.00008 11.8944V10ZM9.17079 18C9.58262 19.1652 10.6939 20 12.0001 20C13.3063 20 14.4175 19.1652 14.8294 18H9.17079ZM12.0001 4C8.68637 4 6.00008 6.68629 6.00008 10V11.8944C6.00008 12.4867 5.82477 13.0657 5.49623 13.5585L3.8686 16H20.1316L18.5039 13.5585C18.1754 13.0657 18.0001 12.4867 18.0001 11.8944V10C18.0001 6.68629 15.3138 4 12.0001 4Z" fill="black"/>
</svg>
