<svg width="24" height="24" viewBox="0 0 24 24" fill="none" xmlns="http://www.w3.org/2000/svg">
<path d="M19.9999 11.8496V10C19.9999 5.58172 16.4181 2 11.9999 2C7.58158 2 3.99985 5.58172 3.99985 10V11.8496C3.99985 12.2723 3.86594 12.6841 3.61733 13.026L2.30992 14.8237C1.34851 16.1456 2.29282 18 3.92739 18H7.09987C7.56314 20.2822 9.5809 22 11.9999 22C14.4188 22 16.4366 20.2822 16.8998 18H20.0723C21.7069 18 22.6512 16.1456 21.6898 14.8237L20.3824 13.026C20.1338 12.6841 19.9999 12.2723 19.9999 11.8496ZM11.9999 20C10.6936 20 9.5824 19.1652 9.17056 18H14.8291C14.4173 19.1652 13.3061 20 11.9999 20Z" fill="black"/>
</svg>
