<svg width="24" height="24" viewBox="0 0 24 24" fill="none" xmlns="http://www.w3.org/2000/svg">
<path d="M5.94536 1.66793C6.40489 1.36158 7.02576 1.48576 7.33211 1.94528L19.6654 20.4453C19.9718 20.9048 19.8476 21.5257 19.3881 21.832C18.9286 22.1384 18.3077 22.0142 18.0013 21.5547L16.4658 19.2513C15.6421 20.8819 13.9517 22 12.0001 22C9.58112 22 7.56337 20.2822 7.1001 18H3.8686C2.27121 18 1.31842 16.2197 2.2045 14.8906L3.83213 12.4491C3.94164 12.2849 4.00008 12.0919 4.00008 11.8944V9.99998C4.00008 7.73487 4.94146 5.68963 6.45433 4.23416L5.66801 3.05468C5.36166 2.59516 5.48583 1.97429 5.94536 1.66793ZM9.1709 18C9.58274 19.1652 10.694 20 12.0002 20C13.3064 20 14.4177 19.1652 14.8295 18H9.1709ZM18.7019 16H20.1316L18.5039 13.5585C18.1754 13.0657 18.0001 12.4867 18.0001 11.8944V9.99998C18.0001 6.68628 15.3138 3.99998 12.0001 3.99998C11.5835 3.99998 11.1768 4.04244 10.7841 4.12327L9.61058 2.36294C10.3652 2.12709 11.1678 1.99998 12.0001 1.99998C16.4184 1.99998 20.0001 5.58171 20.0001 9.99998V11.8944C20.0001 12.0919 20.0585 12.2849 20.168 12.4491L21.7957 14.8906C22.6817 16.2197 21.729 18 20.1316 18H20.0353L18.7019 16ZM14.2983 15.9999L7.58772 5.93408C6.60214 7.00314 6.00014 8.43122 6.00014 9.99991V11.8943C6.00014 12.4866 5.82482 13.0656 5.49629 13.5584L3.86865 15.9999H14.2983Z" fill="black"/>
</svg>
