<svg width="24" height="24" viewBox="0 0 24 24" fill="none" xmlns="http://www.w3.org/2000/svg">
<path fill-rule="evenodd" clip-rule="evenodd" d="M10 4H14C14.5523 4 15 4.44772 15 5V6H9V5C9 4.44772 9.44772 4 10 4ZM7 6V5C7 3.34315 8.34315 2 10 2H14C15.6569 2 17 3.34315 17 5V6H19C20.6569 6 22 7.34315 22 9V12.25C22 13.3546 21.1046 14.25 20 14.25H4C2.89543 14.25 2 13.3546 2 12.25V9C2 7.34315 3.34315 6 5 6H7ZM11 16H4.5C3.94772 16 3.5 16.4477 3.5 17V18.5C3.5 20.1569 4.84315 21.5 6.5 21.5H17.5C19.1569 21.5 20.5 20.1569 20.5 18.5V17C20.5 16.4477 20.0523 16 19.5 16H13V18C13 18.5523 12.5523 19 12 19C11.4477 19 11 18.5523 11 18V16Z" fill="black"/>
</svg>
