<svg width="24" height="24" viewBox="0 0 24 24" fill="none" xmlns="http://www.w3.org/2000/svg">
<path fill-rule="evenodd" clip-rule="evenodd" d="M10 4H14C14.5523 4 15 4.44772 15 5V6H9V5C9 4.44772 9.44772 4 10 4ZM7 6V5C7 3.34315 8.34315 2 10 2H14C15.6569 2 17 3.34315 17 5V6H19C20.6569 6 22 7.34315 22 9V13C22 14.1104 21.3967 15.0799 20.5 15.5987V18.5C20.5 20.1569 19.1569 21.5 17.5 21.5H6.5C4.84315 21.5 3.5 20.1569 3.5 18.5V15.5987C2.6033 15.0799 2 14.1104 2 13V9C2 7.34315 3.34315 6 5 6H7ZM5 8C4.44772 8 4 8.44772 4 9V13C4 13.5523 4.44772 14 5 14H12H19C19.5523 14 20 13.5523 20 13V9C20 8.44771 19.5523 8 19 8H5ZM13 16H18.5V18.5C18.5 19.0523 18.0523 19.5 17.5 19.5H6.5C5.94772 19.5 5.5 19.0523 5.5 18.5V16H11V17C11 17.5523 11.4477 18 12 18C12.5523 18 13 17.5523 13 17V16Z" fill="black"/>
</svg>
