<svg width="24" height="24" viewBox="0 0 24 24" fill="none" xmlns="http://www.w3.org/2000/svg">
<path d="M10.2361 4.5C9.8573 4.5 9.51103 4.714 9.34164 5.05279L8.39443 6.94721C8.22504 7.286 7.87877 7.5 7.5 7.5H5C4.44772 7.5 4 7.94772 4 8.5V18C4 18.5523 4.44772 19 5 19H19C19.5523 19 20 18.5523 20 18V8.5C20 7.94772 19.5523 7.5 19 7.5H16.5C16.1212 7.5 15.775 7.286 15.6056 6.94721L14.6584 5.05279C14.489 4.714 14.1427 4.5 13.7639 4.5H10.2361ZM7.55279 4.15836C8.06096 3.14201 9.09975 2.5 10.2361 2.5H13.7639C14.9002 2.5 15.939 3.14201 16.4472 4.15836L17.118 5.5H19C20.6569 5.5 22 6.84315 22 8.5V18C22 19.6569 20.6569 21 19 21H5C3.34315 21 2 19.6569 2 18V8.5C2 6.84315 3.34315 5.5 5 5.5H6.88197L7.55279 4.15836ZM12 10.5C10.6193 10.5 9.5 11.6193 9.5 13C9.5 14.3807 10.6193 15.5 12 15.5C13.3807 15.5 14.5 14.3807 14.5 13C14.5 11.6193 13.3807 10.5 12 10.5ZM7.5 13C7.5 10.5147 9.51472 8.5 12 8.5C14.4853 8.5 16.5 10.5147 16.5 13C16.5 15.4853 14.4853 17.5 12 17.5C9.51472 17.5 7.5 15.4853 7.5 13Z" fill="black"/>
</svg>
