<svg width="24" height="24" viewBox="0 0 24 24" fill="none" xmlns="http://www.w3.org/2000/svg">
<path fill-rule="evenodd" clip-rule="evenodd" d="M10.4885 2.88139C11.4225 2.33671 12.5779 2.33661 13.5119 2.88139L21.7795 7.70365C22.6852 8.23218 22.7611 9.47106 22.0129 10.1236C22.0514 11.5216 22.213 13.1887 22.8947 14.5523C23.1416 15.0462 22.9412 15.647 22.4474 15.8941C21.9535 16.1411 21.3526 15.9408 21.1056 15.4468C20.4387 14.1127 20.1744 12.6033 20.0695 11.2915L19.0353 11.8951L19.3879 16.1109C19.4869 17.3002 18.8712 18.4356 17.8205 19.0015L13.422 21.3697C12.5343 21.8475 11.466 21.8475 10.5783 21.3697L6.17986 19.0015C5.12898 18.4356 4.51343 17.3003 4.61248 16.1109L4.96404 11.8951L2.22088 10.2954C1.22899 9.71656 1.22895 8.2825 2.22088 7.70365L10.4885 2.88139ZM13.5119 15.1177L13.3342 15.2134C12.4342 15.6604 11.3642 15.6286 10.4885 15.1177L6.87713 13.0113L6.60564 16.2769C6.57264 16.6733 6.77784 17.0521 7.1281 17.2408L11.5265 19.6089C11.8222 19.7679 12.1781 19.7679 12.4738 19.6089L16.8722 17.2408C17.2223 17.0521 17.4277 16.6732 17.3947 16.2769L17.1222 13.0113L13.5119 15.1177ZM12.5041 4.60892C12.1928 4.4274 11.8076 4.4275 11.4963 4.60892L3.96795 8.99955L11.4963 13.3902C11.8076 13.5718 12.1927 13.5718 12.5041 13.3902L20.0002 9.01713C20.0002 9.0114 20.0002 9.00524 20.0002 8.99955H20.0314L12.5041 4.60892Z" fill="black"/>
</svg>
