<svg width="24" height="24" viewBox="0 0 24 24" fill="none" xmlns="http://www.w3.org/2000/svg">
<path d="M18.3915 16.1943C18.4575 16.9872 18.047 17.7438 17.3466 18.1211L12.9482 20.4892C12.3562 20.808 11.6436 20.808 11.0517 20.4892L6.65323 18.1211C5.95287 17.7438 5.54326 16.9871 5.60929 16.1943L5.8212 13.6426L9.73722 15.7646C11.1486 16.5291 12.8513 16.5291 14.2626 15.7646L18.1786 13.6426L18.3915 16.1943Z" fill="black"/>
<path d="M10.571 2.77361C11.4622 2.29088 12.5372 2.29103 13.4284 2.77361L21.9704 7.40056C22.8324 7.86744 22.842 9.09238 22.0017 9.5783C22.0158 11.0701 22.1212 13.0068 22.8943 14.5529C23.1412 15.0469 22.941 15.6477 22.447 15.8947C21.9531 16.1415 21.3521 15.9413 21.1052 15.4474C20.326 13.8891 20.0998 12.091 20.032 10.6486L13.4284 14.2258C12.5371 14.7085 11.4623 14.7086 10.571 14.2258L2.02902 9.5988C1.15637 9.12592 1.15623 7.87332 2.02902 7.40056L10.571 2.77361Z" fill="black"/>
</svg>
