<svg width="24" height="24" viewBox="0 0 24 24" fill="none" xmlns="http://www.w3.org/2000/svg">
<path d="M8 2C6.89543 2 6 2.89543 6 4H18C18 2.89543 17.1046 2 16 2H8ZM4 8C4 6.89543 4.89543 6 6 6H18C19.1046 6 20 6.89543 20 8H4ZM2 12.5C2 11.1193 3.11929 10 4.5 10H19.5C20.8807 10 22 11.1193 22 12.5V19C22 20.3807 20.8807 21.5 19.5 21.5H4.5C3.11929 21.5 2 20.3807 2 19V12.5ZM4.5 12C4.22386 12 4 12.2239 4 12.5V19C4 19.2761 4.22386 19.5 4.5 19.5H19.5C19.7761 19.5 20 19.2761 20 19V12.5C20 12.2239 19.7761 12 19.5 12H4.5Z" fill="black"/>
</svg>
