<svg width="24" height="24" viewBox="0 0 24 24" fill="none" xmlns="http://www.w3.org/2000/svg">
<path d="M16 12C15.3096 12 14.75 11.4404 14.75 10.75C14.75 10.0596 15.3096 9.5 16 9.5C16.6904 9.5 17.25 10.0596 17.25 10.75C17.25 11.4404 16.6904 12 16 12ZM12 12C11.3096 12 10.75 11.4404 10.75 10.75C10.75 10.0596 11.3096 9.5 12 9.5C12.6904 9.5 13.25 10.0596 13.25 10.75C13.25 11.4404 12.6904 12 12 12ZM9.25 10.75C9.25 11.4404 8.69036 12 8 12C7.30964 12 6.75 11.4404 6.75 10.75C6.75 10.0596 7.30964 9.5 8 9.5C8.69036 9.5 9.25 10.0596 9.25 10.75ZM10.5 20.1386C10.5 21.1666 11.3334 22 12.3614 22C12.7753 22 13.1774 21.862 13.5041 21.6079L18.9115 17.4021C20.8602 15.8865 22 13.5561 22 11.0873V10.5C22 6.08172 18.4183 2.5 14 2.5H10C5.58172 2.5 2 6.08172 2 10.5C2 14.9183 5.58172 18.5 10 18.5H10.5V20.1386ZM12.5 17.5C12.5 16.9477 12.0523 16.5 11.5 16.5H10C6.68629 16.5 4 13.8137 4 10.5C4 7.18629 6.68629 4.5 10 4.5H14C17.3137 4.5 20 7.18629 20 10.5V11.0783C20 12.9226 19.1518 14.6644 17.7 15.8017L12.5 19.875V17.5Z" fill="black"/>
</svg>
