<svg width="24" height="24" viewBox="0 0 24 24" fill="none" xmlns="http://www.w3.org/2000/svg">
<path d="M7.995 12C8.68259 12 9.24 11.4376 9.24 10.75C9.24 10.0624 8.68259 9.49999 7.995 9.49999C7.30741 9.49999 6.75 10.0624 6.75 10.75C6.75 11.4376 7.30741 12 7.995 12ZM12 12C12.6904 12 13.25 11.4403 13.25 10.75C13.25 10.0596 12.6904 9.49999 12 9.49999C11.3096 9.49999 10.75 10.0596 10.75 10.75C10.75 11.4403 11.3096 12 12 12ZM16 12C16.6904 12 17.25 11.4403 17.25 10.75C17.25 10.0596 16.6904 9.49999 16 9.49999C15.3096 9.49999 14.75 10.0596 14.75 10.75C14.75 11.4403 15.3096 12 16 12ZM11 18H9.75C5.46979 18 2 14.5302 2 10.25C2 5.96979 5.4698 2.5 9.75 2.5L14 2.5C18.4183 2.50001 22 6.08173 22 10.5V10.9575C22 13.4995 20.792 15.8901 18.7456 17.398L12.7987 21.7799C12.6047 21.9229 12.37 22 12.129 22C11.5055 22 11 21.4945 11 20.871V18Z" fill="black"/>
</svg>
