<svg width="24" height="24" viewBox="0 0 24 24" fill="none" xmlns="http://www.w3.org/2000/svg">
<path d="M9.89304 15.8928C10.2836 16.2833 10.9167 16.2833 11.3073 15.8928L16.9501 10.2499C17.3367 9.86333 17.3367 9.23653 16.9501 8.84993C16.5635 8.46333 15.9367 8.46333 15.5501 8.84993L10.6001 13.7999L8.45014 11.6499C8.06354 11.2633 7.43674 11.2633 7.05014 11.6499C6.66354 12.0365 6.66354 12.6633 7.05014 13.0499L9.89304 15.8928ZM12 21.9999C6.47721 21.9999 2.00001 17.5228 2 12C1.99999 6.47714 6.47721 1.99999 12 2C17.5228 2.00001 22 6.4771 22.0001 11.9999C22.0001 17.5227 17.5229 21.9999 12 21.9999ZM11.9997 20.0001C16.418 20.0001 19.9997 16.4183 19.9997 12.0001C19.9997 7.58179 16.418 4.00007 11.9997 4.00007C7.58144 4.00007 3.99971 7.58179 3.99971 12.0001C3.99971 16.4183 7.58144 20.0001 11.9997 20.0001Z" fill="black"/>
</svg>
