<svg width="24" height="24" viewBox="0 0 24 24" fill="none" xmlns="http://www.w3.org/2000/svg">
<path d="M3 6C3 4.5 4.5 3 6 3H18C19.5 3 21 4.5 21 6V18C21 19.5 19.5 21 18 21H6C4.5 21 3 19.5 3 18V6ZM16.7071 10.2071C17.0976 9.81658 17.0976 9.18342 16.7071 8.79289C16.3166 8.40237 15.6834 8.40237 15.2929 8.79289L10.5 13.5858L8.70711 11.7929C8.31658 11.4024 7.68342 11.4024 7.29289 11.7929C6.90237 12.1834 6.90237 12.8166 7.29289 13.2071L9.79289 15.7071C10.1834 16.0976 10.8166 16.0976 11.2071 15.7071L16.7071 10.2071Z" fill="black"/>
</svg>
