<svg width="24" height="24" viewBox="0 0 24 24" fill="none" xmlns="http://www.w3.org/2000/svg">
<path d="M15.2071 11.2928C15.3946 11.4803 15.5 11.7347 15.5 11.9999C15.5 12.2651 15.3946 12.5195 15.2071 12.707L11.2071 16.707C10.8166 17.0975 10.1834 17.0975 9.79289 16.707C9.40237 16.3165 9.40237 15.6833 9.79289 15.2928L13.0858 11.9999L9.79289 8.70705C9.40237 8.31652 9.40237 7.68336 9.79289 7.29283C10.1834 6.90231 10.8166 6.90231 11.2071 7.29283L15.2071 11.2928ZM12 21.9999C17.5228 21.9999 21.9999 17.5228 21.9999 11.9999C21.9999 6.47715 17.5228 2 12 2C6.47714 2 2 6.47715 2 11.9999C2 17.5228 6.47714 21.9999 12 21.9999Z" fill="black"/>
</svg>
