<svg width="24" height="24" viewBox="0 0 24 24" fill="none" xmlns="http://www.w3.org/2000/svg">
<path d="M7.70015 16.3C8.08675 16.6866 8.71355 16.6866 9.10015 16.3L12.0001 13.4L14.9002 16.3C15.2867 16.6866 15.9136 16.6866 16.3001 16.3C16.6867 15.9134 16.6867 15.2866 16.3001 14.9L13.4002 12L16.3001 9.1C16.6867 8.7134 16.6867 8.0866 16.3001 7.7C15.9136 7.3134 15.2867 7.3134 14.9001 7.7L12.0001 10.6L9.10015 7.7C8.71355 7.3134 8.08675 7.3134 7.70015 7.7C7.31355 8.0866 7.31355 8.7134 7.70015 9.1L10.6002 12L7.70015 14.9C7.31355 15.2866 7.31355 15.9134 7.70015 16.3ZM12 22C6.47714 22 2 17.5229 2 12C2 6.47721 6.47712 2.00006 11.9999 2.00003C17.5229 2 22.0001 6.47725 22 12.0002C21.9999 17.523 17.5228 22 12 22Z" fill="black"/>
</svg>
