<svg width="24" height="24" viewBox="0 0 24 24" fill="none" xmlns="http://www.w3.org/2000/svg">
<path d="M2.5 5.5C2.5 3.84315 3.84315 2.5 5.5 2.5H18.5C20.1569 2.5 21.5 3.84315 21.5 5.5V18.5C21.5 20.1569 20.1569 21.5 18.5 21.5H5.5C3.84315 21.5 2.5 20.1569 2.5 18.5V5.5ZM11.125 6.6813C10.5842 6.75544 10.0539 6.91103 9.59875 7.1955C8.83533 7.67264 8.375 8.45737 8.375 9.5C8.375 10.5663 8.86545 11.3164 9.5599 11.8335C10.1958 12.3069 11.0159 12.5943 11.7233 12.8301C12.492 13.0864 13.0436 13.2983 13.4125 13.575C13.717 13.8034 13.875 14.055 13.875 14.5C13.875 14.9574 13.7103 15.1726 13.4738 15.3205C13.1746 15.5075 12.6786 15.625 12 15.625C11.3214 15.625 10.8254 15.5075 10.5262 15.3205C10.2897 15.1726 10.125 14.9574 10.125 14.5C10.125 14.0168 9.73325 13.625 9.25 13.625C8.76675 13.625 8.375 14.0168 8.375 14.5C8.375 15.5426 8.83533 16.3274 9.59875 16.8045C10.0539 17.089 10.5842 17.2446 11.125 17.3187V18.625C11.125 19.1082 11.5168 19.5 12 19.5C12.4832 19.5 12.875 19.1082 12.875 18.625V17.3187C13.4158 17.2446 13.9461 17.089 14.4012 16.8045C15.1647 16.3274 15.625 15.5426 15.625 14.5C15.625 13.445 15.158 12.6966 14.4625 12.175C13.8314 11.7017 13.008 11.4137 12.2767 11.1699C11.5373 10.9235 10.9824 10.7109 10.605 10.4298C10.2862 10.1924 10.125 9.93374 10.125 9.5C10.125 9.04263 10.2897 8.82736 10.5262 8.6795C10.8254 8.49254 11.3214 8.375 12 8.375C12.6786 8.375 13.1746 8.49254 13.4738 8.6795C13.7103 8.82736 13.875 9.04263 13.875 9.5C13.875 9.98325 14.2668 10.375 14.75 10.375C15.2332 10.375 15.625 9.98325 15.625 9.5C15.625 8.45737 15.1647 7.67264 14.4012 7.1955C13.9461 6.91103 13.4158 6.75544 12.875 6.6813V5.375C12.875 4.89175 12.4832 4.5 12 4.5C11.5168 4.5 11.125 4.89175 11.125 5.375V6.6813Z" fill="black"/>
</svg>
