<svg width="24" height="24" viewBox="0 0 24 24" fill="none" xmlns="http://www.w3.org/2000/svg">
<path d="M2 20.5C2 21.0523 2.44771 21.5 3 21.5H6.5C7.05228 21.5 7.5 21.0523 7.5 20.5V18C7.5 17.4477 7.94771 17 8.5 17C9.05228 17 9.5 17.4477 9.5 18V20.5C9.5 21.0523 9.94771 21.5 10.5 21.5H15V19.5V12V10V4C15 2.89543 14.1046 2 13 2L4.00002 2.00001C2.89546 2.00001 2.00003 2.89544 2.00003 4.00001L2 20.5ZM17 10V21.5H21C21.5523 21.5 22 21.0523 22 20.5V12C22 10.8954 21.1046 10 20 10H17ZM6.75 12.5C6.19771 12.5 5.75 12.0523 5.75 11.5C5.75 10.9477 6.19771 10.5 6.75 10.5H10.25C10.8023 10.5 11.25 10.9477 11.25 11.5C11.25 12.0523 10.8023 12.5 10.25 12.5H6.75ZM6.75 8.5C6.19771 8.5 5.75 8.05228 5.75 7.5C5.75 6.94771 6.19771 6.5 6.75 6.5H10.25C10.8023 6.5 11.25 6.94771 11.25 7.5C11.25 8.05228 10.8023 8.5 10.25 8.5H6.75Z" fill="black"/>
</svg>
