<svg width="24" height="24" viewBox="0 0 24 24" fill="none" xmlns="http://www.w3.org/2000/svg">
<path d="M16.5858 2.99997C17.3668 2.21892 18.6332 2.21892 19.4142 2.99997L21 4.58576C21.781 5.36681 21.781 6.63314 21 7.41419L9.82842 18.5858C8.28263 20.1316 6.18608 21 4 21C3.44772 21 3 20.5523 3 20C3 17.8139 3.86842 15.7173 5.41421 14.1715L16.5858 2.99997ZM16.5858 8.99997L15 7.41418L6.82843 15.5858C5.91963 16.4946 5.31997 17.6547 5.09714 18.9028C6.34525 18.68 7.50541 18.0803 8.41421 17.1715L16.5858 8.99997ZM17.9999 7.58576L19.5857 5.99997L17.9999 4.41418L16.4141 5.99997L17.9999 7.58576Z" fill="black"/>
</svg>
