<svg width="24" height="24" viewBox="0 0 24 24" fill="none" xmlns="http://www.w3.org/2000/svg">
<path d="M2.5 5.5C2.5 3.84315 3.84315 2.5 5.5 2.5H18.5C20.1569 2.5 21.5 3.84315 21.5 5.5V18.5C21.5 20.1569 20.1569 21.5 18.5 21.5H5.5C3.84315 21.5 2.5 20.1569 2.5 18.5V5.5ZM5.5 4.5C4.94772 4.5 4.5 4.94772 4.5 5.5V18.5C4.5 19.0523 4.94772 19.5 5.5 19.5H18.5C19.0523 19.5 19.5 19.0523 19.5 18.5V5.5C19.5 4.94772 19.0523 4.5 18.5 4.5H5.5ZM9.5325 7.0895C9.9753 6.81275 10.4832 6.65479 11 6.57336V5.5H13V6.57336C13.5168 6.65479 14.0247 6.81275 14.4675 7.0895C15.2686 7.59016 15.75 8.41557 15.75 9.5C15.75 10.0523 15.3023 10.5 14.75 10.5C14.1977 10.5 13.75 10.0523 13.75 9.5C13.75 9.08443 13.6064 8.90984 13.4075 8.7855C13.1371 8.61647 12.6684 8.5 12 8.5C11.3316 8.5 10.8629 8.61647 10.5925 8.7855C10.3936 8.90984 10.25 9.08443 10.25 9.5C10.25 9.88856 10.3876 10.1122 10.6796 10.3296C11.0386 10.5969 11.5746 10.8041 12.3162 11.0513C13.0448 11.2942 13.8877 11.5877 14.5375 12.075C15.2609 12.6176 15.75 13.4014 15.75 14.5C15.75 15.5844 15.2686 16.4098 14.4675 16.9105C14.0247 17.1872 13.5168 17.3452 13 17.4266V18.5H11V17.4266C10.4832 17.3452 9.9753 17.1872 9.5325 16.9105C8.73144 16.4098 8.25 15.5844 8.25 14.5C8.25 13.9477 8.69772 13.5 9.25 13.5C9.80228 13.5 10.25 13.9477 10.25 14.5C10.25 14.9156 10.3936 15.0902 10.5925 15.2145C10.8629 15.3835 11.3316 15.5 12 15.5C12.6684 15.5 13.1371 15.3835 13.4075 15.2145C13.6064 15.0902 13.75 14.9156 13.75 14.5C13.75 14.0986 13.6141 13.8824 13.3375 13.675C12.9873 13.4124 12.4552 13.2058 11.6838 12.9487C10.9786 12.7137 10.1396 12.4209 9.48525 11.9338C8.76397 11.3967 8.25 10.6114 8.25 9.5C8.25 8.41557 8.73144 7.59016 9.5325 7.0895Z" fill="black"/>
</svg>
