<svg width="24" height="24" viewBox="0 0 24 24" fill="none" xmlns="http://www.w3.org/2000/svg">
<path d="M3 21.5C2.44772 21.5 2 21.0523 2 20.5V5C2 3.34315 3.34315 2 5 2H12C13.6569 2 15 3.34315 15 5V10H19C20.6569 10 22 11.3431 22 13V20.5C22 21.0523 21.5523 21.5 21 21.5H3ZM6 11.5C6 12.0523 6.44772 12.5 7 12.5H10C10.5523 12.5 11 12.0523 11 11.5C11 10.9477 10.5523 10.5 10 10.5H7C6.44772 10.5 6 10.9477 6 11.5ZM6 8C6 8.55228 6.44772 9 7 9H10C10.5523 9 11 8.55228 11 8C11 7.44772 10.5523 7 10 7H7C6.44772 7 6 7.44772 6 8ZM4 19.5H7.5V17C7.5 16.4477 7.94772 16 8.5 16C9.05228 16 9.5 16.4477 9.5 17V19.5H13V5C13 4.44772 12.5523 4 12 4H5C4.44772 4 4 4.44772 4 5V19.5ZM15 19.5H20V13C20 12.4477 19.5523 12 19 12H15V19.5Z" fill="black"/>
</svg>
