<svg width="24" height="24" viewBox="0 0 24 24" fill="none" xmlns="http://www.w3.org/2000/svg">
<path fill-rule="evenodd" clip-rule="evenodd" d="M15 9C18.3137 9 21 11.6863 21 15C21 16.2957 20.587 17.4938 19.8887 18.4746L21.1211 19.707C21.5116 20.0976 21.5116 20.7306 21.1211 21.1211C20.7306 21.5116 20.0976 21.5116 19.707 21.1211L18.4746 19.8887C17.4938 20.587 16.2957 21 15 21C11.6863 21 9 18.3137 9 15C9 11.6863 11.6863 9 15 9ZM15 11C12.7909 11 11 12.7909 11 15C11 17.2091 12.7909 19 15 19C15.0886 19 15.1765 18.9959 15.2637 18.9902C15.2738 18.9896 15.2839 18.989 15.2939 18.9883C15.3678 18.9829 15.441 18.9751 15.5137 18.9658C15.5306 18.9636 15.5476 18.9614 15.5645 18.959C15.7335 18.9351 15.899 18.9008 16.0605 18.8564C16.0681 18.8544 16.0755 18.8517 16.083 18.8496C16.1576 18.8287 16.231 18.8053 16.3037 18.7803C16.3134 18.7769 16.3233 18.7739 16.333 18.7705C16.4925 18.7141 16.6474 18.6486 16.7969 18.5732C16.8018 18.5708 16.8066 18.5679 16.8115 18.5654C17.7199 18.103 18.427 17.3046 18.7705 16.333C18.7739 16.3233 18.7769 16.3134 18.7803 16.3037C18.8621 16.0664 18.9229 15.8196 18.959 15.5645C18.9614 15.5476 18.9636 15.5306 18.9658 15.5137C18.9874 15.3454 19 15.1741 19 15C19 12.7909 17.2091 11 15 11Z" fill="black"/>
<path d="M7.32324 12.75C7.13671 13.3875 7.0281 14.0574 7.00684 14.75H5V19H8.07324C8.49765 19.7334 9.03343 20.3938 9.66016 20.9561C9.59257 20.9701 9.52401 20.9822 9.4541 20.9893L9.25 21H5L4.7959 20.9893C3.85435 20.8938 3.1062 20.1457 3.01074 19.2041L3 19V14.75C3 13.7143 3.78722 12.863 4.7959 12.7607L5 12.75H7.32324Z" fill="black"/>
<path fill-rule="evenodd" clip-rule="evenodd" d="M9.4541 3.01074C10.4628 3.113 11.25 3.96435 11.25 5V7.93262C9.84059 8.68201 8.68307 9.84064 7.93359 11.25H5L4.7959 11.2393C3.85435 11.1438 3.1062 10.3957 3.01074 9.4541L3 9.25V5C3 3.96435 3.78722 3.113 4.7959 3.01074L5 3H9.25L9.4541 3.01074ZM5 9.25H9.25V5H5V9.25Z" fill="black"/>
<path d="M19.2041 3.01074C20.2128 3.113 21 3.96435 21 5V9.25L20.9893 9.4541C20.9822 9.52401 20.9701 9.59257 20.9561 9.66016C20.3937 9.03331 19.7335 8.49671 19 8.07227V5H14.75V7.00586C14.0575 7.02712 13.3874 7.13577 12.75 7.32227V5C12.75 3.96435 13.5372 3.113 14.5459 3.01074L14.75 3H19L19.2041 3.01074Z" fill="black"/>
</svg>
