<svg width="24" height="24" viewBox="0 0 24 24" fill="none" xmlns="http://www.w3.org/2000/svg">
<path fill-rule="evenodd" clip-rule="evenodd" d="M15 9C18.3137 9 21 11.6863 21 15C21 16.2957 20.587 17.4938 19.8887 18.4746L21.1211 19.707C21.5116 20.0976 21.5116 20.7306 21.1211 21.1211C20.7306 21.5116 20.0976 21.5116 19.707 21.1211L18.4746 19.8887C17.4938 20.587 16.2957 21 15 21C11.6863 21 9 18.3137 9 15C9 11.6863 11.6863 9 15 9ZM15 11C12.7909 11 11 12.7909 11 15C11 17.2091 12.7909 19 15 19C15.0886 19 15.1765 18.9959 15.2637 18.9902C15.2738 18.9896 15.2839 18.989 15.2939 18.9883C15.3678 18.9829 15.441 18.9751 15.5137 18.9658C15.5306 18.9636 15.5476 18.9614 15.5645 18.959C15.7335 18.9351 15.899 18.9008 16.0605 18.8564C16.0681 18.8544 16.0755 18.8517 16.083 18.8496C16.1576 18.8287 16.231 18.8053 16.3037 18.7803C16.3134 18.7769 16.3233 18.7739 16.333 18.7705C16.4925 18.7141 16.6474 18.6486 16.7969 18.5732C16.8018 18.5708 16.8066 18.5679 16.8115 18.5654C17.7199 18.103 18.427 17.3046 18.7705 16.333C18.7739 16.3233 18.7769 16.3134 18.7803 16.3037C18.8621 16.0664 18.9229 15.8196 18.959 15.5645C18.9614 15.5476 18.9636 15.5306 18.9658 15.5137C18.9874 15.3454 19 15.1741 19 15C19 12.7909 17.2091 11 15 11Z" fill="black"/>
<path d="M7.32324 12.75C7.11434 13.4639 7 14.2185 7 15C7 17.3662 8.02824 19.4914 9.66113 20.9561C9.52834 20.9838 9.39104 21 9.25 21H5C3.89543 21 3 20.1046 3 19V14.75C3 13.6454 3.89543 12.75 5 12.75H7.32324Z" fill="black"/>
<path d="M9.25 3C10.3546 3 11.25 3.89543 11.25 5V7.93262C9.8406 8.68201 8.68307 9.84064 7.93359 11.25H5C3.89543 11.25 3 10.3546 3 9.25V5C3 3.89543 3.89543 3 5 3H9.25Z" fill="black"/>
<path d="M19 3C20.1046 3 21 3.89543 21 5V9.25C21 9.39104 20.9838 9.52834 20.9561 9.66113C19.4914 8.02824 17.3662 7 15 7C14.2186 7 13.4639 7.11341 12.75 7.32227V5C12.75 3.89543 13.6454 3 14.75 3H19Z" fill="black"/>
</svg>
