<svg width="24" height="24" viewBox="0 0 24 24" fill="none" xmlns="http://www.w3.org/2000/svg">
<path fill-rule="evenodd" clip-rule="evenodd" d="M5.50003 2.49988L15.5 2.49996V2.50152C16.1091 2.52316 16.6888 2.77461 17.1213 3.20711L20.7929 6.87868C21.2254 7.31117 21.4768 7.89086 21.4985 8.5H21.5V18.5002C21.5 20.1571 20.1568 21.5002 18.4999 21.5002L5.49994 21.4999C3.84311 21.4999 2.5 20.1567 2.5 18.4999V5.49988C2.5 3.84301 3.84316 2.49986 5.50003 2.49988ZM19.0858 9H16C15.4477 9 15 8.55228 15 8V4.91421C15 4.55065 15.4551 4.36928 15.7071 4.62132L19.3787 8.29289C19.6295 8.5437 19.4494 9 19.0858 9ZM13 4.50024C13 4.50024 13 6.88113 13 8C13 9.65685 14.3431 11 16 11C17.1189 11 19.5 11 19.5 11V18.5002C19.5 19.0525 19.0523 19.5002 18.5 19.5002L5.49999 19.5001C4.94771 19.5001 4.49999 19.0524 4.49999 18.5001V5.50024C4.49999 4.94796 4.94771 4.50024 5.5 4.50024H13Z" fill="black"/>
</svg>
