<svg width="24" height="24" viewBox="0 0 24 24" fill="none" xmlns="http://www.w3.org/2000/svg">
<path d="M12.3377 20.1492C11.9669 21.2616 10.9165 22 9.75894 22C8.25535 22 7 20.7832 7 19.2566C7 18.5331 7.01693 17.8157 7.13627 17.0996L7.31954 16H5C3.34315 16 2 14.6569 2 13C2 10.2146 2.53472 7.47063 3.56864 4.88583C4.02423 3.74685 5.12735 3 6.35407 3H19C20.6569 3 22 4.34315 22 6V13C22 14.6569 20.6569 16 19 16H14.9684C13.8991 17.2831 12.8761 18.5338 12.3377 20.1492ZM15.5 14H19C19.5523 14 20 13.5523 20 13V6C20 5.44772 19.5523 5 19 5H15.5V14ZM13.5 5H6.35407C5.94516 5 5.57745 5.24895 5.42559 5.62861C4.48592 7.97784 4 10.4683 4 13C4 13.5523 4.44772 14 5 14H8.5C9.10858 14 9.58644 14.5641 9.48639 15.1644L9.10906 17.4284C9.00788 18.0355 9 18.6434 9 19.2566C9 19.6557 9.3368 20 9.75894 20C10.0706 20 10.3465 19.7983 10.4403 19.5168C11.0711 17.6246 12.2464 16.1423 13.5 14.6379V5Z" fill="black"/>
</svg>
