<svg width="24" height="24" viewBox="0 0 24 24" fill="none" xmlns="http://www.w3.org/2000/svg">
<path d="M7.29289 10.7071L11.2929 14.7071C11.6834 15.0976 12.3166 15.0976 12.7071 14.7071L16.7071 10.7071C17.0976 10.3166 17.0976 9.68342 16.7071 9.29289C16.3166 8.90237 15.6834 8.90237 15.2929 9.29289L13 11.5858V3.5C13 2.9477 12.5523 2.5 12 2.5C11.4477 2.5 11 2.9477 11 3.5V11.5858L8.70711 9.29289C8.31658 8.90237 7.68342 8.90237 7.29289 9.29289C6.90237 9.68342 6.90237 10.3166 7.29289 10.7071ZM5 12C5 11.4477 4.55228 11 4 11C3.44772 11 3 11.4477 3 12V19C3 20.1046 3.89543 21 5 21H19C20.1046 21 21 20.1046 21 19V12C21 11.4477 20.5523 11 20 11C19.4477 11 19 11.4477 19 12V19H5V12Z" fill="black"/>
</svg>
