<svg width="24" height="24" viewBox="0 0 24 24" fill="none" xmlns="http://www.w3.org/2000/svg">
<path d="M16.7071 11.207L12.7071 15.207C12.3166 15.5975 11.6834 15.5975 11.2929 15.207L7.29289 11.207C6.90237 10.8165 6.90237 10.1833 7.29289 9.79283C7.68342 9.40231 8.31658 9.40231 8.70711 9.79283L12 13.0857L15.2929 9.79283C15.6834 9.40231 16.3166 9.40231 16.7071 9.79283C17.0976 10.1833 17.0976 10.8165 16.7071 11.207ZM12 21.9999C17.5228 21.9999 21.9999 17.5228 21.9999 11.9999C21.9999 6.47715 17.5228 2 12 2C6.47714 2 2 6.47715 2 11.9999C2 17.5228 6.47714 21.9999 12 21.9999Z" fill="black"/>
</svg>
