<svg width="24" height="24" viewBox="0 0 24 24" fill="none" xmlns="http://www.w3.org/2000/svg">
<path d="M19.9998 3H16.9999V16H19.9999C21.1045 16 21.9999 15.1045 21.9999 14L21.9998 4.99998C21.9998 3.89542 21.1043 3 19.9998 3ZM10.1623 22C11.3568 22 12.0103 21.1315 12.3512 20.1088C12.8929 18.4838 13.8747 17.2449 14.9999 16V3H6.35406C5.12735 3 4.02422 3.74685 3.56863 4.88583C2.53471 7.47062 2 10.2146 2 13C2 14.6569 3.34314 16 5 16H8.49987C8.49987 16 8 18.5361 8 19.8377C8 21.0319 8.96808 22 10.1623 22Z" fill="black"/>
</svg>
