<svg width="24" height="24" viewBox="0 0 24 24" fill="none" xmlns="http://www.w3.org/2000/svg">
<path d="M1.99951 15C1.9995 16.6568 3.34265 18 4.99951 18H14.9997C16.6565 18 17.9996 16.6569 17.9997 15.0001L17.9998 5.00006C17.9999 3.34318 16.6567 2 14.9998 2H4.99951C3.34267 2 1.99953 3.34313 1.99951 4.99997V15ZM4.99988 16C4.44759 16 3.99987 15.5523 3.99988 15L3.99985 5C3.99985 4.44772 4.44757 4 4.99985 4H14.9999C15.5522 4 15.9999 4.44772 15.9999 5.00001V15C15.9999 15.5523 15.5522 16 14.9999 16H4.99988ZM21.9999 8C21.9999 6.89543 21.1045 6 19.9999 6V15C19.9999 17.7614 17.7613 20 14.9999 20H5.99989C5.99989 21.1046 6.89532 22 7.99985 22H14.9999C18.8659 22 22 18.8659 21.9999 14.9999L21.9999 8Z" fill="black"/>
</svg>
