<svg width="24" height="24" viewBox="0 0 24 24" fill="none" xmlns="http://www.w3.org/2000/svg">
<path d="M14.2747 4.03849C13.7437 3.88677 13.1902 4.19426 13.0385 4.72529L9.03848 18.7253C8.88675 19.2563 9.19424 19.8098 9.72528 19.9615C10.2563 20.1133 10.8098 19.8058 10.9615 19.2747L14.9615 5.27473C15.1132 4.7437 14.8058 4.19021 14.2747 4.03849ZM17.7929 7.79291C17.4024 8.18343 17.4024 8.8166 17.7929 9.20712L20.5858 12L17.7929 14.7929C17.4024 15.1834 17.4024 15.8166 17.7929 16.2071C18.1834 16.5976 18.8166 16.5976 19.2071 16.2071L22.7071 12.7071C23.0976 12.3166 23.0976 11.6834 22.7071 11.2929L19.2071 7.79291C18.8166 7.40238 18.1834 7.40238 17.7929 7.79291ZM6.20711 7.79291C5.81658 7.40238 5.18342 7.40238 4.79289 7.79291L1.29289 11.2929C0.90237 11.6834 0.90237 12.3166 1.29289 12.7071L4.79289 16.2071C5.18342 16.5976 5.81658 16.5976 6.20711 16.2071C6.59763 15.8166 6.59763 15.1834 6.20711 14.7929L3.41421 12L6.20711 9.20712C6.59763 8.8166 6.59763 8.18343 6.20711 7.79291Z" fill="black"/>
</svg>
