<svg width="24" height="24" viewBox="0 0 24 24" fill="none" xmlns="http://www.w3.org/2000/svg">
<path d="M2 12C2 6.47715 6.47715 2 12 2C17.5228 2 22 6.47715 22 12C22 17.5228 17.5228 22 12 22C6.47715 22 2 17.5228 2 12ZM13.25 7.75C13.25 7.05964 12.6904 6.5 12 6.5C11.3096 6.5 10.75 7.05964 10.75 7.75V12.25C10.75 12.9404 11.3096 13.5 12 13.5C12.6904 13.5 13.25 12.9404 13.25 12.25V7.75ZM12 17.75C12.6904 17.75 13.25 17.1904 13.25 16.5C13.25 15.8096 12.6904 15.25 12 15.25C11.3096 15.25 10.75 15.8096 10.75 16.5C10.75 17.1904 11.3096 17.75 12 17.75Z" fill="black"/>
</svg>
