<svg width="24" height="24" viewBox="0 0 24 24" fill="none" xmlns="http://www.w3.org/2000/svg">
<path d="M7.62507 12C7.62507 11.4477 8.07279 11 8.62507 11H15.3751C15.9274 11 16.3751 11.4477 16.3751 12C16.3751 12.5523 15.9274 13 15.3751 13H8.62507C8.07279 13 7.62507 12.5523 7.62507 12ZM2.00014 12C2.00012 6.47719 6.47726 2 12.0001 2C17.5229 2 22.0001 6.47717 22.0001 12C22.0001 17.5228 17.5229 22 12.0001 22C6.47729 22 2.00016 17.5229 2.00014 12ZM12.0001 4C7.5818 4 4.00007 7.58172 4.00007 12C4.00007 16.4183 7.5818 20 12.0001 20C16.4184 20 20.0001 16.4183 20.0001 12C20.0001 7.58172 16.4184 4 12.0001 4Z" fill="black"/>
</svg>
