<svg width="24" height="24" viewBox="0 0 24 24" fill="none" xmlns="http://www.w3.org/2000/svg">
<path d="M13.2606 5.125C13.6308 3.96504 14.7173 3.125 16 3.125C17.2827 3.125 18.3692 3.96504 18.7394 5.125H20C20.4832 5.125 20.875 5.51675 20.875 6C20.875 6.48325 20.4832 6.875 20 6.875H18.7394C18.3692 8.03496 17.2827 8.875 16 8.875C14.7173 8.875 13.6308 8.03496 13.2606 6.875H4C3.51675 6.875 3.125 6.48325 3.125 6C3.125 5.51675 3.51675 5.125 4 5.125H13.2606ZM5.26058 11.125C5.63076 9.96504 6.71728 9.125 8 9.125C9.28272 9.125 10.3692 9.96504 10.7394 11.125H20C20.4832 11.125 20.875 11.5168 20.875 12C20.875 12.4832 20.4832 12.875 20 12.875H10.7394C10.3692 14.035 9.28272 14.875 8 14.875C6.71728 14.875 5.63076 14.035 5.26058 12.875H4C3.51675 12.875 3.125 12.4832 3.125 12C3.125 11.5168 3.51675 11.125 4 11.125H5.26058ZM13.2606 17.125C13.6308 15.965 14.7173 15.125 16 15.125C17.2827 15.125 18.3692 15.965 18.7394 17.125H20C20.4832 17.125 20.875 17.5168 20.875 18C20.875 18.4832 20.4832 18.875 20 18.875H18.7394C18.3692 20.035 17.2827 20.875 16 20.875C14.7173 20.875 13.6308 20.035 13.2606 18.875H4C3.51675 18.875 3.125 18.4832 3.125 18C3.125 17.5168 3.51675 17.125 4 17.125H13.2606Z" fill="black"/>
</svg>
