<svg width="24" height="24" viewBox="0 0 24 24" fill="none" xmlns="http://www.w3.org/2000/svg">
<path d="M4 1C4.55228 1 5 1.44772 5 2V3.5H11.5C12.8062 3.5 13.9175 4.33481 14.3293 5.5H19.5C20.6046 5.5 21.5 6.39543 21.5 7.5V15.5C21.5 16.6046 20.6046 17.5 19.5 17.5H15.5C14.1938 17.5 13.0825 16.6652 12.6707 15.5H5V22C5 22.5523 4.55228 23 4 23C3.44772 23 3 22.5523 3 22V2C3 1.44772 3.44772 1 4 1ZM14.5 7.5V14.5C14.5 15.0523 14.9477 15.5 15.5 15.5H19.5V7.5H14.5ZM5 5.5V13.5H12.5V6.5C12.5 5.94772 12.0523 5.5 11.5 5.5H5Z" fill="black"/>
</svg>
