<svg width="24" height="24" viewBox="0 0 24 24" fill="none" xmlns="http://www.w3.org/2000/svg">
<path d="M15.2071 11.2928C15.3946 11.4803 15.5 11.7347 15.5 11.9999C15.5 12.2651 15.3946 12.5195 15.2071 12.707L11.2071 16.707C10.8166 17.0975 10.1834 17.0975 9.79289 16.707C9.40239 16.3165 9.40239 15.6833 9.79289 15.2928L13.0858 11.9999L9.79289 8.70705C9.40239 8.31652 9.40239 7.68336 9.79289 7.29283C10.1834 6.90231 10.8166 6.90231 11.2071 7.29283L15.2071 11.2928ZM12 21.9999C6.47719 21.9999 2.00009 17.5228 2.00009 11.9999C2.00009 6.47715 6.47719 2 12 2C17.5229 2 22 6.47715 22 11.9999C22 17.5228 17.5229 21.9999 12 21.9999ZM12 19.9999C16.4183 19.9999 20 16.4182 20 11.9999C20 7.58171 16.4183 4 12 4C7.58179 4 3.99999 7.58173 3.99999 12C3.99999 16.4182 7.58179 19.9999 12 19.9999Z" fill="black"/>
</svg>
