<svg width="24" height="24" viewBox="0 0 24 24" fill="none" xmlns="http://www.w3.org/2000/svg">
<path d="M7 22C5.34315 22 4 20.6569 4 19V13C2.89543 13 2 12.1046 2 11V8C2 6.89543 2.89543 6 4 6H7.2C7.03333 5.7 7 5.36667 7 5C7 3.35098 8.35098 2 10 2C10.7667 2 11.4333 2.3 12 2.8C12.5667 2.26667 13.2333 2 14 2C15.649 2 17 3.35098 17 5C17 5.36667 16.9333 5.66667 16.8 6H20C21.1046 6 22 6.89543 22 8V11C22 12.1046 21.1046 13 20 13V19C20 20.6569 18.6569 22 17 22H7ZM14 4C13.4425 4 13 4.44255 13 5C13 5.55745 13.4425 6 14 6C14.5575 6 15 5.55745 15 5C15 4.44255 14.5575 4 14 4ZM9 5C9 5.55745 9.44255 6 10 6C10.5575 6 11 5.55745 11 5C11 4.44255 10.5575 4 10 4C9.44255 4 9 4.44255 9 5ZM4 8V11H11V8H4ZM11 20V13H6V19C6 19.5523 6.44772 20 7 20H11ZM13 20H17C17.5523 20 18 19.5523 18 19V13H13V20ZM20 11V8H13V11H20Z" fill="black"/>
</svg>
