<svg width="24" height="24" viewBox="0 0 24 24" fill="none" xmlns="http://www.w3.org/2000/svg">
<path d="M4 19C4 20.6569 5.34315 22 7 22H17C18.6569 22 20 20.6569 20 19V15H13V19C13 19.5523 12.5523 20 12 20C11.4477 20 11 19.5523 11 19V15H4V19ZM4 13H11V8H13V13H20C21.1046 13 22 12.1046 22 11V8C22 6.89543 21.1046 6 20 6H16.8C16.9333 5.66667 17 5.36667 17 5C17 3.35098 15.649 2 14 2C13.2333 2 12.5667 2.26667 12 2.8C11.4333 2.3 10.7667 2 10 2C8.35098 2 7 3.35098 7 5C7 5.36667 7.03333 5.7 7.2 6H4C2.89543 6 2 6.89543 2 8V11C2 12.1046 2.89543 13 4 13ZM13 5C13 4.44255 13.4425 4 14 4C14.5575 4 15 4.44255 15 5C15 5.55745 14.5575 6 14 6C13.4425 6 13 5.55745 13 5ZM10 6C9.44255 6 9 5.55745 9 5C9 4.44255 9.44255 4 10 4C10.5575 4 11 4.44255 11 5C11 5.55745 10.5575 6 10 6Z" fill="black"/>
</svg>
