<svg width="24" height="24" viewBox="0 0 24 24" fill="none" xmlns="http://www.w3.org/2000/svg">
<path d="M12.0179 21.9999C17.5325 21.9902 21.9999 17.5169 21.9999 11.9999C21.9999 6.47715 17.5228 2 12 2C6.47714 2 2 6.47715 2 11.9999C2 17.5169 6.46745 21.9902 11.9821 21.9999L12 22L12.0179 21.9999ZM11.6177 19.6738C10.8287 18.6725 10.5403 17.2251 10.3262 16H13.6738C13.4597 17.2251 13.1713 18.6725 12.3823 19.6738C12.0972 20.0354 11.9101 20.0447 11.6177 19.6738ZM9.24519 19.513C7.47692 18.8644 6.00128 17.6095 5.07024 16H8.29887C8.48753 17.1963 8.76505 18.3969 9.24519 19.513ZM12.3823 4.32624C13.1714 5.32751 13.4597 6.77493 13.6738 8H10.3262C10.5403 6.77493 10.8286 5.32751 11.6177 4.32624C11.8977 3.97092 12.0907 3.95618 12.3823 4.32624ZM8.29892 8H5.07025C6.00129 6.39052 7.47696 5.13549 9.24527 4.48694C8.76516 5.6031 8.48758 6.80366 8.29892 8ZM8.07165 14H4.25205C3.91609 12.6947 3.91604 11.3053 4.25203 10H8.07165C7.97751 11.2944 7.97751 12.7056 8.07165 14ZM15.9284 10H19.748C20.0839 11.3054 20.0839 12.6946 19.748 14H15.9284C16.0226 12.7056 16.0226 11.2944 15.9284 10ZM13.9228 14H10.0774C9.97265 12.6701 9.97265 11.3299 10.0774 10H13.9228C14.0275 11.3298 14.0275 12.6702 13.9228 14ZM14.7549 4.48694C16.5231 5.13551 17.9988 6.39051 18.9298 7.99998H15.7012C15.5126 6.80374 15.235 5.60299 14.7549 4.48694ZM15.7012 16H18.9298C17.9988 17.6094 16.5231 18.8644 14.7549 19.513C15.235 18.3969 15.5126 17.1963 15.7012 16Z" fill="black"/>
</svg>
