<svg width="24" height="24" viewBox="0 0 24 24" fill="none" xmlns="http://www.w3.org/2000/svg">
<path d="M10.7707 3.03736C11.3024 3.18689 11.6122 3.7391 11.4627 4.27076L10.4138 8.00001H15.7445L16.9104 3.73626C17.0561 3.20353 17.606 2.88975 18.1388 3.03542C18.6715 3.18109 18.9853 3.73104 18.8396 4.26377L17.818 8.00001H20.5C21.0523 8.00001 21.5 8.44773 21.5 9.00001C21.5 9.5523 21.0523 10 20.5 10H17.2711L16.1773 14H19C19.5523 14 20 14.4477 20 15C20 15.5523 19.5523 16 19 16H15.6305L14.4646 20.2638C14.3189 20.7965 13.769 21.1103 13.2362 20.9646C12.7035 20.8189 12.3897 20.269 12.5354 19.7363L13.557 16H8.1638L6.96265 20.2708C6.81312 20.8024 6.26091 21.1122 5.72925 20.9627C5.1976 20.8131 4.88782 20.2609 5.03735 19.7293L6.0862 16H3.5C2.94772 16 2.5 15.5523 2.5 15C2.5 14.4477 2.94772 14 3.5 14H6.6487L7.7737 10H5C4.44772 10 4 9.5523 4 9.00001C4 8.44773 4.44772 8.00001 5 8.00001H8.3362L9.53735 3.72927C9.68688 3.19761 10.2391 2.88783 10.7707 3.03736ZM9.8513 10L8.7263 14H14.1039L15.1977 10H9.8513Z" fill="black"/>
</svg>
