<svg width="24" height="24" viewBox="0 0 24 24" fill="none" xmlns="http://www.w3.org/2000/svg">
<path d="M12 3.5C8.13401 3.5 5 6.63401 5 10.5V11H8C9.10457 11 10 11.8954 10 13V17C10 18.1046 9.10457 19 8 19H5C3.89543 19 3 18.1046 3 17V10.5C3 5.52944 7.02944 1.5 12 1.5C16.9706 1.5 21 5.52944 21 10.5V20C21 21.6569 19.6569 23 18 23H13C12.4477 23 12 22.5523 12 22C12 21.4477 12.4477 21 13 21H18C18.5523 21 19 20.5523 19 20V19H16C14.8954 19 14 18.1046 14 17V13C14 11.8954 14.8954 11 16 11H19V10.5C19 6.63401 15.866 3.5 12 3.5Z" fill="black"/>
</svg>
