<svg width="24" height="24" viewBox="0 0 24 24" fill="none" xmlns="http://www.w3.org/2000/svg">
<path d="M5 10.5C5 6.63401 8.13401 3.5 12 3.5C15.866 3.5 19 6.63401 19 10.5V11H16C14.3431 11 13 12.3431 13 14V16.5C13 18.1569 14.3431 19.5 16 19.5H19C19 20.0523 18.5523 21 18 21H13C12.4477 21 12 21.4477 12 22C12 22.5523 12.4477 23 13 23H18C19.6569 23 21 21.6569 21 20V10.5C21 5.52944 16.9706 1.5 12 1.5C7.02944 1.5 3 5.52944 3 10.5V16.5C3 18.1569 4.34315 19.5 6 19.5H8C9.65685 19.5 11 18.1569 11 16.5V14C11 12.3431 9.65685 11 8 11H5V10.5ZM16 13H19V17.5H16C15.4477 17.5 15 17.0523 15 16.5V14C15 13.4477 15.4477 13 16 13ZM5 16.5V13H8C8.55228 13 9 13.4477 9 14V16.5C9 17.0523 8.55228 17.5 8 17.5H6C5.44772 17.5 5 17.0523 5 16.5Z" fill="black"/>
</svg>
