<svg width="24" height="24" viewBox="0 0 24 24" fill="none" xmlns="http://www.w3.org/2000/svg">
<path fill-rule="evenodd" clip-rule="evenodd" d="M17 2.5C20.3137 2.5 22.5 5.18629 22.5 8.5C22.5 13.8138 16.4975 17.0035 12.8301 21.0195C12.4178 21.4709 11.7056 21.4995 11.2559 21.1045L11.1699 21.0195C7.50249 17.0035 1.5 13.8138 1.5 8.5C1.5 5.18629 3.68629 2.5 7 2.5C9.5 2.5 11 3.5 12 5.5C13 3.5 14.5 2.5 17 2.5ZM17 4.5C16.0188 4.5 15.4062 4.69412 14.9854 4.95312C14.5668 5.21071 14.1677 5.63732 13.7891 6.39453C13.4503 7.0721 12.7575 7.5 12 7.5C11.2425 7.5 10.5497 7.0721 10.2109 6.39453C9.83233 5.63732 9.43315 5.21071 9.01465 4.95312C8.59376 4.69412 7.98122 4.5 7 4.5C5.01376 4.5 3.5 6.05394 3.5 8.5C3.5 10.3367 4.51688 11.9713 6.375 13.834C7.29556 14.7568 8.32645 15.6438 9.43066 16.6133C10.2812 17.3601 11.1709 18.1527 12 18.9922C12.8291 18.1527 13.7188 17.3601 14.5693 16.6133C15.6735 15.6438 16.7044 14.7568 17.625 13.834C19.4831 11.9713 20.5 10.3367 20.5 8.5C20.5 6.05394 18.9862 4.5 17 4.5Z" fill="black"/>
</svg>
