<svg width="24" height="24" viewBox="0 0 24 24" fill="none" xmlns="http://www.w3.org/2000/svg">
<path d="M5 19.5H8.5V15.5C8.5 14.3954 9.39543 13.5 10.5 13.5H13.5C14.6046 13.5 15.5 14.3954 15.5 15.5V19.5H19V10.393C19 10.1011 18.8724 9.82372 18.6508 9.63374L12 3.93306L5.34921 9.63373C5.12756 9.82372 5 10.1011 5 10.393V19.5ZM5 21.5C3.89543 21.5 3 20.6046 3 19.5V10.3382C3 9.44784 3.39547 8.6035 4.07945 8.03352L10.7196 2.50003C11.4613 1.88196 12.5387 1.88195 13.2804 2.50003L19.9206 8.03352C20.6045 8.6035 21 9.44784 21 10.3382V19.5C21 20.6046 20.1046 21.5 19 21.5H15.5C14.3954 21.5 13.5 20.6046 13.5 19.5V15.5H10.5V19.5C10.5 20.6046 9.60457 21.5 8.5 21.5H5Z" fill="black"/>
</svg>
