<svg width="24" height="24" viewBox="0 0 24 24" fill="none" xmlns="http://www.w3.org/2000/svg">
<path d="M4.5 21.5C3.67157 21.5 2.99999 20.8284 2.99999 20L2.99994 10.3381C2.99994 9.44778 3.39541 8.60344 4.07939 8.03346L10.7196 2.49997C11.4613 1.88189 12.5386 1.88189 13.2803 2.49997L19.9205 8.03346C20.6045 8.60344 20.9999 9.44778 20.9999 10.3381L21 20C21 20.8284 20.3284 21.5 19.5 21.5H15.5C14.6716 21.5 14 20.8284 14 20V16C14 15.4477 13.5523 15 13 15H11C10.4477 15 10 15.4477 10 16V20C10 20.8284 9.32843 21.5 8.5 21.5L4.5 21.5Z" fill="black"/>
</svg>
