<svg width="24" height="24" viewBox="0 0 24 24" fill="none" xmlns="http://www.w3.org/2000/svg">
<path d="M6.87491 17C6.87491 17.2762 7.09877 17.5 7.37491 17.5H8.62491C8.90106 17.5 9.12491 17.2762 9.12491 17V13.125C9.12491 12.5037 8.62123 12 7.99991 12C7.37859 12 6.87491 12.5037 6.87491 13.125V17ZM10.8749 17C10.8749 17.2762 11.0988 17.5 11.3749 17.5H12.6249C12.9011 17.5 13.1249 17.2762 13.1249 17V8.12501C13.1249 7.50369 12.6212 7.00001 11.9999 7.00001C11.3786 7.00001 10.8749 7.50369 10.8749 8.12501V17ZM14.8749 17C14.8749 17.2762 15.0988 17.5 15.3749 17.5H16.6249C16.9011 17.5 17.1249 17.2762 17.1249 17V10.625C17.1249 10.0037 16.6212 9.50004 15.9999 9.50004C15.3786 9.50004 14.8749 10.0037 14.8749 10.625V17ZM5.49994 21.5C3.84307 21.5 2.49992 20.1569 2.49994 18.5L2.50005 5.5C2.50007 3.84316 3.84321 2.50003 5.50005 2.50003L18.5002 2.50003C20.1571 2.50003 21.5003 3.84321 21.5002 5.50009L21.5 18.5001C21.4999 20.1569 20.1568 21.5 18.5 21.5H5.49994ZM4.5003 18.5C4.5003 19.0523 4.94802 19.5 5.5003 19.5H18.5002C19.0525 19.5 19.5002 19.0523 19.5002 18.5L19.5003 5.50004C19.5003 4.94776 19.0526 4.50004 18.5003 4.50004H5.50039C4.94811 4.50004 4.50039 4.94775 4.50039 5.50003L4.5003 18.5Z" fill="black"/>
</svg>
