<svg width="24" height="24" viewBox="0 0 24 24" fill="none" xmlns="http://www.w3.org/2000/svg">
<path d="M7.00003 17C7.00003 17.2761 7.22389 17.5 7.50003 17.5H8.50003C8.77617 17.5 9.00003 17.2761 9.00003 17V13C9.00003 12.4477 8.55232 12 8.00003 12C7.44775 12 7.00003 12.4477 7.00003 13V17ZM11 17C11 17.2761 11.2239 17.5 11.5 17.5H12.5C12.7762 17.5 13 17.2761 13 17V8.00004C13 7.44775 12.5523 7.00004 12 7.00004C11.4477 7.00004 11 7.44775 11 8.00004V17ZM15 17C15 17.2761 15.2239 17.5 15.5 17.5H16.5C16.7762 17.5 17 17.2761 17 17L17 10.5C17 9.9477 16.5523 9.49999 16 9.49999C15.4477 9.49999 15 9.94771 15 10.5L15 17ZM5.50011 21.5C3.84327 21.5 2.50013 20.1568 2.50011 18.5L2.5 5.50006C2.49999 3.84319 3.84313 2.50003 5.49999 2.50003L18.5 2.5C20.1568 2.5 21.5 3.84314 21.5 5.5V18.5C21.5 20.1568 20.1568 21.5 18.5 21.5H5.50011Z" fill="black"/>
</svg>
