<svg width="24" height="24" viewBox="0 0 24 24" fill="none" xmlns="http://www.w3.org/2000/svg">
<path d="M13.2184 2.44716C12.4427 2.10241 11.5573 2.10241 10.7816 2.44716L3.78158 5.55827C2.6982 6.03978 2 7.11414 2 8.29971V18C2 19.6568 3.34315 21 5 21H19C20.6569 21 22 19.6568 22 18V8.29971C22 7.11414 21.3018 6.03978 20.2184 5.55827L13.2184 2.44716ZM11.5939 4.27479C11.8524 4.15987 12.1476 4.15987 12.4061 4.27479L19.4061 7.3859C19.7673 7.5464 20 7.90452 20 8.29971V9.35009L18 10.239V8.49996C18 7.94768 17.5523 7.49996 17 7.49996H7C6.44772 7.49996 6 7.94768 6 8.49996V10.239L4 9.35009V8.29971C4 7.90452 4.23273 7.5464 4.59386 7.3859L11.5939 4.27479ZM16 9.49996V11.1279L12.4061 12.7251C12.1476 12.8401 11.8524 12.8401 11.5939 12.7251L8 11.1279V9.49996H16ZM4 18V11.5387L10.7816 14.5528C11.5573 14.8975 12.4427 14.8975 13.2184 14.5528L20 11.5387V18C20 18.5522 19.5523 19 19 19H5C4.44772 19 4 18.5522 4 18Z" fill="black"/>
</svg>
