<svg width="24" height="24" viewBox="0 0 24 24" fill="none" xmlns="http://www.w3.org/2000/svg">
<path d="M3.29289 3.29289C3.68342 2.90237 4.31658 2.90237 4.70711 3.29289C8.24597 6.8313 11.7845 10.37 15.3231 13.9087C17.1177 15.7035 18.9124 17.4982 20.7071 19.2929C21.0976 19.6834 21.0976 20.3166 20.7071 20.7071C20.3166 21.0976 19.6834 21.0976 19.2929 20.7071L17.3864 18.8006C15.9496 19.5201 14.1751 20 11.9999 20C6.41971 20 3.47685 16.8417 2.10701 14.5836C1.13881 12.9875 1.13881 11.0125 2.10701 9.41645C2.70317 8.43371 3.59727 7.28046 4.87704 6.29125L3.29289 4.70711C2.90237 4.31658 2.90237 3.68342 3.29289 3.29289ZM12.2506 8.00773L15.9922 11.7493C15.8679 9.73986 14.26 8.13199 12.2506 8.00773ZM19.1723 14.9294C19.5857 14.4575 19.9182 13.9825 20.1828 13.5462C20.7643 12.5877 20.7643 11.4123 20.1828 10.4538C19.0477 8.58258 16.6655 6 11.9999 6C11.4174 6 10.8705 6.04025 10.3572 6.11435L8.66466 4.42179C9.65442 4.15536 10.7623 4 11.9999 4C17.5801 4 20.523 7.15835 21.8928 9.41645C22.861 11.0125 22.861 12.9875 21.8928 14.5835C21.5573 15.1365 21.1275 15.7435 20.5878 16.3449L19.1723 14.9294ZM6.30512 7.71936C5.13843 8.56472 4.34353 9.5858 3.81697 10.4538C3.23549 11.4123 3.23549 12.5877 3.81697 13.5462C4.9521 15.4174 7.33427 18 11.9999 18C13.5228 18 14.8025 17.7248 15.8749 17.2891L14.0319 15.4461C13.4364 15.7981 12.7417 16 11.9999 16C9.79076 16 7.9999 14.2091 7.9999 12C7.9999 11.2582 8.20185 10.5635 8.55376 9.968L6.30512 7.71936ZM10.0677 11.4819C10.0235 11.6471 9.9999 11.8208 9.9999 12C9.9999 13.1046 10.8953 14 11.9999 14C12.1791 14 12.3528 13.9764 12.518 13.9322L10.0677 11.4819Z" fill="black"/>
</svg>
