<svg width="24" height="24" viewBox="0 0 24 24" fill="none" xmlns="http://www.w3.org/2000/svg">
<path d="M10.7816 2.44716C11.5573 2.10241 12.4427 2.10241 13.2184 2.44716L20.2184 5.55827C21.3018 6.03978 22 7.11414 22 8.29971V8.35619L18.0002 10.1743V7.5C18.0002 6.94772 17.5525 6.5 17.0002 6.5H7.00023C6.44794 6.5 6.00023 6.94772 6.00023 7.5V10.1743L2 8.35598V8.29971C2 7.11414 2.6982 6.03978 3.78158 5.55827L10.7816 2.44716ZM2 10.5529V18C2 19.6568 3.34315 21 5 21H19C20.6569 21 22 19.6568 22 18V10.5531L13.2416 14.5342C12.4529 14.8927 11.5476 14.8927 10.7588 14.5342L2 10.5529Z" fill="black"/>
</svg>
