<svg width="24" height="24" viewBox="0 0 24 24" fill="none" xmlns="http://www.w3.org/2000/svg">
<path d="M3.29289 3.29289C3.68342 2.90237 4.31658 2.90237 4.70711 3.29289L20.7071 19.2929C21.0976 19.6834 21.0976 20.3166 20.7071 20.7071C20.3166 21.0976 19.6834 21.0976 19.2929 20.7071L17.3864 18.8006C15.9496 19.5201 14.1751 20 11.9999 20C6.41971 20 3.47685 16.8417 2.10701 14.5836C1.13881 12.9875 1.13881 11.0125 2.10701 9.41645C2.70317 8.43371 3.59727 7.28046 4.87704 6.29125L3.29289 4.70711C2.90237 4.31658 2.90237 3.68342 3.29289 3.29289ZM16.9503 12.7075C16.9831 12.4764 17 12.2402 17 12C17 9.23858 14.7614 7 12 7C11.7598 7 11.5236 7.01693 11.2925 7.04966L8.66466 4.42179C9.65442 4.15536 10.7623 4 11.9999 4C17.5801 4 20.523 7.15835 21.8928 9.41645C22.861 11.0125 22.861 12.9875 21.8928 14.5835C21.5573 15.1365 21.1275 15.7435 20.5878 16.3449L16.9503 12.7075ZM7.8284 9.24255C7.30488 10.0329 7 10.9808 7 11.9999C7 14.7613 9.23858 16.9999 12 16.9999C13.0191 16.9999 13.967 16.695 14.7574 16.1715L13.2934 14.7075C12.9018 14.8949 12.4631 14.9999 12 14.9999C10.3431 14.9999 9 13.6568 9 11.9999C9 11.5368 9.10495 11.0981 9.29237 10.7065L7.8284 9.24255Z" fill="black"/>
</svg>
