<svg width="24" height="24" viewBox="0 0 24 24" fill="none" xmlns="http://www.w3.org/2000/svg">
<path d="M16.3431 2C14.8429 2 13.404 2.59599 12.3431 3.65685L9.41421 6.58579C9.02369 6.97631 9.02369 7.60948 9.41421 8C9.80474 8.39052 10.4379 8.39052 10.8284 8L13.7574 5.07107C14.4432 4.38527 15.3733 4 16.3431 4C18.3628 4 20 5.63723 20 7.65685C20 8.62671 19.6147 9.55685 18.9289 10.2426L16 13.1716C15.6095 13.5621 15.6095 14.1953 16 14.5858C16.3905 14.9763 17.0237 14.9763 17.4142 14.5858L20.3431 11.6569C21.404 10.596 22 9.15715 22 7.65685C22 4.53266 19.4673 2 16.3431 2ZM14.5858 17.4142C14.9763 17.0237 14.9763 16.3905 14.5858 16C14.1953 15.6095 13.5621 15.6095 13.1716 16L10.2426 18.9289C9.55685 19.6147 8.62671 20 7.65685 20C5.63723 20 4 18.3628 4 16.3431C4 15.3733 4.38527 14.4432 5.07107 13.7574L8 10.8284C8.39052 10.4379 8.39052 9.80474 8 9.41421C7.60948 9.02369 6.97631 9.02369 6.58579 9.41421L3.65685 12.3431C2.59599 13.404 2 14.8429 2 16.3431C2 19.4673 4.53266 22 7.65685 22C9.15715 22 10.596 21.404 11.6569 20.3431L14.5858 17.4142ZM15.7071 8.29289C16.0976 8.68342 16.0976 9.31658 15.7071 9.70711L9.70711 15.7071C9.31658 16.0976 8.68342 16.0976 8.29289 15.7071C7.90237 15.3166 7.90237 14.6834 8.29289 14.2929L14.2929 8.29289C14.6834 7.90237 15.3166 7.90237 15.7071 8.29289Z" fill="black"/>
</svg>
