<svg width="24" height="24" viewBox="0 0 24 24" fill="none" xmlns="http://www.w3.org/2000/svg">
<path d="M12 2C7.07886 2 2.99995 5.9894 3 10.9105C3.00003 13.48 4.10921 15.9243 6.04289 17.6163L11.3415 22.2526C11.7186 22.5825 12.2815 22.5825 12.6585 22.2526L17.9571 17.6163C19.8909 15.9243 21.0001 13.4799 21 10.9104C21 5.98929 16.9211 2 12 2ZM14.5 11C14.5 12.3807 13.3807 13.5 12 13.5C10.6193 13.5 9.5 12.3807 9.5 11C9.5 9.61929 10.6193 8.5 12 8.5C13.3807 8.5 14.5 9.61929 14.5 11Z" fill="black"/>
</svg>
