<svg width="24" height="24" viewBox="0 0 24 24" fill="none" xmlns="http://www.w3.org/2000/svg">
<path d="M6.00022 22C4.34339 22 3.00025 20.6569 3.00022 19L3.00012 11C3.0001 9.34317 4.34325 8 6.00012 8L6.99984 8V6C6.99984 3.23858 9.23842 1 11.9998 1C14.7613 0.999999 16.9998 3.23858 16.9998 6V8L18.0003 8C19.6571 8 21.0003 9.34315 21.0003 11V19C21.0003 20.6569 19.6571 22 18.0003 22H6.00022ZM4.99984 19C4.99984 19.5523 5.44756 20 5.99984 20H17.9998C18.5521 20 18.9998 19.5523 18.9998 19V11C18.9998 10.4477 18.5521 10 17.9998 10H5.99984C5.44756 10 4.99984 10.4477 4.99984 11V19ZM8.99984 8H14.9998V6C14.9998 4.34315 13.6567 3 11.9998 3C10.343 3 8.99984 4.34315 8.99984 6V8ZM9.99984 15C9.99984 16.1046 10.8953 17 11.9998 17C13.1044 17 13.9998 16.1046 13.9998 15C13.9998 13.8954 13.1044 13 11.9998 13C10.8953 13 9.99984 13.8954 9.99984 15Z" fill="black"/>
</svg>
