<svg width="24" height="24" viewBox="0 0 24 24" fill="none" xmlns="http://www.w3.org/2000/svg">
<path d="M6 22C4.34315 22 3 20.6568 3 19V11C3 9.34314 4.34315 7.99999 6 7.99999H7V6.00003C7 3.2386 9.23858 1.00003 12 1.00003C14.7614 1.00003 17 3.23861 17 6.00003V7.99999H18C19.6569 7.99999 21 9.34314 21 11V19C21 20.6568 19.6569 22 18 22H6ZM10 15C10 16.1046 10.8954 17 12 17C13.1046 17 14 16.1046 14 15C14 13.8955 13.1046 13 12 13C10.8954 13 10 13.8955 10 15ZM9.5 7.99999H14.5V5.99999C14.5 4.61928 13.3807 3.49999 12 3.49999C10.6193 3.49999 9.5 4.61928 9.5 5.99999V7.99999Z" fill="black"/>
</svg>
