<svg width="24" height="24" viewBox="0 0 24 24" fill="none" xmlns="http://www.w3.org/2000/svg">
<path d="M10.5 20C10.5 19.4477 10.9477 19 11.5 19H18.5V5H11.5C10.9477 5 10.5 4.5523 10.5 4C10.5 3.4477 10.9477 3 11.5 3H18.5C19.6046 3 20.5 3.8954 20.5 5V19C20.5 20.1046 19.6046 21 18.5 21H11.5C10.9477 21 10.5 20.5523 10.5 20Z" fill="black"/>
<path d="M13.7071 12.7071C13.8946 12.5196 14 12.2652 14 12C14 11.7348 13.8946 11.4804 13.7071 11.2929L9.7071 7.29289C9.3166 6.90237 8.6834 6.90237 8.2929 7.29289C7.9024 7.68342 7.9024 8.31658 8.2929 8.70711L10.5858 11H4C3.4477 11 3 11.4477 3 12C3 12.5523 3.4477 13 4 13H10.5858L8.2929 15.2929C7.9024 15.6834 7.9024 16.3166 8.2929 16.7071C8.6834 17.0976 9.3166 17.0976 9.7071 16.7071L13.7071 12.7071Z" fill="black"/>
</svg>
