<svg width="24" height="24" viewBox="0 0 24 24" fill="none" xmlns="http://www.w3.org/2000/svg">
<path d="M21.5 12C21.5 12.2652 21.3946 12.5196 21.2071 12.7071L17.2071 16.7071C16.8166 17.0976 16.1834 17.0976 15.7929 16.7071C15.4024 16.3166 15.4024 15.6834 15.7929 15.2929L18.0858 13H11.5C10.9477 13 10.5 12.5523 10.5 12C10.5 11.4477 10.9477 11 11.5 11H18.0858L15.7929 8.70711C15.4024 8.31658 15.4024 7.68342 15.7929 7.29289C16.1834 6.90237 16.8166 6.90237 17.2071 7.29289L21.2071 11.2929C21.3946 11.4804 21.5 11.7348 21.5 12ZM13.5 4C13.5 4.55228 13.0523 5 12.5 5H5.5V19H12.5C13.0523 19 13.5 19.4477 13.5 20C13.5 20.5523 13.0523 21 12.5 21H5.5C4.39543 21 3.5 20.1046 3.5 19V5C3.5 3.89543 4.39543 3 5.5 3H12.5C13.0523 3 13.5 3.44771 13.5 4Z" fill="black"/>
</svg>
