<svg width="24" height="24" viewBox="0 0 24 24" fill="none" xmlns="http://www.w3.org/2000/svg">
<path d="M20.7071 3.70711C21.0976 3.31658 21.0976 2.68342 20.7071 2.29289C20.3166 1.90237 19.6834 1.90237 19.2929 2.29289L17.0429 4.54289C16.6524 4.93342 16.6524 5.56658 17.0429 5.95711C17.4334 6.34763 18.0666 6.34763 18.4571 5.95711L20.7071 3.70711ZM15.4054 4.59242C15.0083 3.14598 13.3339 2.48569 12.0564 3.27181L1.37496 9.84501C0.476032 10.3982 0.0213793 11.4563 0.23883 12.4892L0.770609 15.0151C1.01417 16.1719 2.03477 17 3.21698 17H3.25597L3.97903 19.4102C4.44017 20.9473 5.85498 22 7.45979 22C9.89409 22 11.64 19.6534 10.9406 17.3217L10.844 17H15.8605C17.3457 17 18.4234 15.5866 18.0303 14.1544L15.4054 4.59242ZM5.89468 18.8355L5.34404 17H8.75597L9.0249 17.8964C9.33943 18.9449 8.55436 20 7.45979 20C6.7382 20 6.10203 19.5267 5.89468 18.8355ZM19.7425 11.0299C19.2067 10.8959 18.6638 11.2217 18.5299 11.7575C18.3959 12.2933 18.7217 12.8362 19.2575 12.9701L22.2575 13.7201C22.7933 13.8541 23.3362 13.5283 23.4701 12.9925C23.6041 12.4567 23.2783 11.9138 22.7425 11.7799L19.7425 11.0299ZM23.452 7.19399C23.621 7.71978 23.3318 8.28302 22.806 8.45203L19.306 9.57703C18.7802 9.74603 18.217 9.4568 18.048 8.93101C17.879 8.40522 18.1682 7.84198 18.694 7.67297L22.194 6.54797C22.7198 6.37897 23.283 6.6682 23.452 7.19399Z" fill="black"/>
</svg>
