<svg width="24" height="24" viewBox="0 0 24 24" fill="none" xmlns="http://www.w3.org/2000/svg">
<path d="M20.7072 2.29289C21.0978 2.68342 21.0978 3.31658 20.7072 3.70711L18.4572 5.95711C18.0667 6.34763 17.4335 6.34763 17.043 5.95711C16.6525 5.56658 16.6525 4.93342 17.043 4.54289L19.293 2.29289C19.6835 1.90237 20.3167 1.90237 20.7072 2.29289ZM15.5821 5.23525C15.0968 3.46738 13.0503 2.66035 11.4889 3.62117L1.67495 9.66054C0.596239 10.3244 0.0506543 11.5941 0.311597 12.8336L0.68729 14.618C0.953534 15.8827 1.99358 16.8199 3.24913 16.9768L3.97915 19.4102C4.44029 20.9473 5.8551 22 7.45992 22C9.89421 22 11.6402 19.6534 10.9407 17.3217L10.8442 17H15.205C17.0202 17 18.3374 15.2724 17.8569 13.522L15.5821 5.23525ZM12.5371 5.32448C12.9629 5.06244 13.5211 5.28254 13.6534 5.76469L15.9283 14.0515C16.0593 14.5288 15.7001 15 15.205 15H3.62293C3.15005 15 2.74181 14.6688 2.64439 14.206L2.26869 12.4215C2.18171 12.0084 2.36357 11.5851 2.72314 11.3639L12.5371 5.32448ZM18.53 11.7575C18.6639 11.2217 19.2069 10.8959 19.7427 11.0299L22.7427 11.7799C23.2785 11.9138 23.6042 12.4567 23.4703 12.9925C23.3363 13.5283 22.7934 13.8541 22.2576 13.7201L19.2576 12.9701C18.7218 12.8362 18.396 12.2933 18.53 11.7575ZM22.8061 8.45203C23.3319 8.28302 23.6212 7.71978 23.4522 7.19399C23.2831 6.6682 22.7199 6.37897 22.1941 6.54797L18.6941 7.67297C18.1683 7.84198 17.8791 8.40522 18.0481 8.93101C18.2171 9.4568 18.7803 9.74603 19.3061 9.57703L22.8061 8.45203ZM5.34424 17H8.75618L9.02512 17.8964C9.33964 18.9449 8.55458 20 7.46001 20C6.73841 20 6.10225 19.5267 5.8949 18.8355L5.34424 17Z" fill="black"/>
</svg>
