<svg width="24" height="24" viewBox="0 0 24 24" fill="none" xmlns="http://www.w3.org/2000/svg">
<path d="M12 4C7.58172 4 4 7.58172 4 12C4 16.4183 7.58172 20 12 20C12.9368 20 13.834 19.8394 14.6668 19.545C15.1875 19.361 15.7588 19.6339 15.9428 20.1546C16.1269 20.6754 15.854 21.2467 15.3332 21.4307C14.2894 21.7997 13.167 22 12 22C6.47715 22 2 17.5228 2 12C2 6.47715 6.47715 2 12 2C17.5228 2 22 6.47715 22 12C22 12.8359 21.8972 13.6491 21.7031 14.4273C21.2745 16.1457 19.6348 17 18.1268 17C16.6968 17 15.4366 16.2727 14.6962 15.1677C13.8807 15.9904 12.7499 16.5 11.5 16.5C9.01472 16.5 7 14.4853 7 12C7 9.51472 9.01472 7.5 11.5 7.5C12.4251 7.5 13.285 7.77914 14 8.25777V8C14 7.44772 14.4477 7 15 7C15.5523 7 16 7.44772 16 8V12.8732C16 14.0478 16.9522 15 18.1268 15C18.9928 15 19.6166 14.5284 19.7626 13.9432C19.9175 13.3222 20 12.6714 20 12C20 7.58172 16.4183 4 12 4ZM14 12C14 10.6193 12.8807 9.5 11.5 9.5C10.1193 9.5 9 10.6193 9 12C9 13.3807 10.1193 14.5 11.5 14.5C12.8807 14.5 14 13.3807 14 12Z" fill="black"/>
</svg>
