<svg width="24" height="24" viewBox="0 0 24 24" fill="none" xmlns="http://www.w3.org/2000/svg">
<path d="M12 2C9.23858 2 7 4.23858 7 7V11C7 13.7614 9.23858 16 12 16C14.7614 16 17 13.7614 17 11V7C17 4.23858 14.7614 2 12 2ZM9 7C9 5.34315 10.3431 4 12 4C13.6569 4 15 5.34315 15 7V11C15 12.6569 13.6569 14 12 14C10.3431 14 9 12.6569 9 11V7ZM5 10.5C5 9.94772 4.55228 9.5 4 9.5C3.44772 9.5 3 9.94772 3 10.5V11C3 15.6326 6.50005 19.4476 11 19.9451V22C11 22.5523 11.4477 23 12 23C12.5523 23 13 22.5523 13 22V19.9451C17.5 19.4476 21 15.6326 21 11V10.5C21 9.94772 20.5523 9.5 20 9.5C19.4477 9.5 19 9.94772 19 10.5V11C19 14.866 15.866 18 12 18C8.13401 18 5 14.866 5 11V10.5Z" fill="black"/>
</svg>
