<svg width="24" height="24" viewBox="0 0 24 24" fill="none" xmlns="http://www.w3.org/2000/svg">
<path d="M7.625 12C7.625 11.4477 8.07272 11 8.625 11H15.375C15.9273 11 16.375 11.4477 16.375 12C16.375 12.5523 15.9273 13 15.375 13H8.625C8.07272 13 7.625 12.5523 7.625 12ZM3 6C3 4.34315 4.34315 3 6 3H18C19.6569 3 21 4.34315 21 6V18C21 19.6569 19.6569 21 18 21H6C4.34315 21 3 19.6569 3 18V6ZM6 5C5.44772 5 5 5.44772 5 6V18C5 18.5523 5.44772 19 6 19H18C18.5523 19 19 18.5523 19 18V6C19 5.44772 18.5523 5 18 5H6Z" fill="black"/>
</svg>
