<svg width="24" height="24" viewBox="0 0 24 24" fill="none" xmlns="http://www.w3.org/2000/svg">
<path d="M12.8519 2.03584C17.9765 2.46873 22.0001 6.76397 22.0001 12.0001C22.0001 17.5229 17.5229 22.0001 12.0001 22.0001C6.76397 22.0001 2.46873 17.9765 2.03584 12.8519C1.96617 12.0272 2.91832 11.4747 3.59979 11.9444C4.56592 12.6103 5.73594 13.0001 7.00001 13.0001C10.3138 13.0001 13.0001 10.3138 13.0001 7.00001C13.0001 5.73594 12.6103 4.56592 11.9444 3.59979C11.4747 2.91832 12.0272 1.96617 12.8519 2.03584ZM14.5758 4.42351C14.8509 5.23239 15.0001 6.09921 15.0001 7.00001C15.0001 11.4183 11.4183 15.0001 7.00001 15.0001C6.09921 15.0001 5.23239 14.8509 4.42351 14.5758C5.49552 17.7301 8.48305 20.0001 12.0001 20.0001C16.4183 20.0001 20.0001 16.4183 20.0001 12.0001C20.0001 8.48305 17.7301 5.49552 14.5758 4.42351Z" fill="black"/>
</svg>
