<svg width="24" height="24" viewBox="0 0 24 24" fill="none" xmlns="http://www.w3.org/2000/svg">
<path d="M4 11C3.44772 11 3 11.4477 3 12C3 12.5523 3.44772 13 4 13C4.55228 13 5 12.5523 5 12C5 11.4477 4.55228 11 4 11ZM1 12C1 10.3431 2.34315 9 4 9C5.65685 9 7 10.3431 7 12C7 13.6569 5.65685 15 4 15C2.34315 15 1 13.6569 1 12ZM12 11C11.4477 11 11 11.4477 11 12C11 12.5523 11.4477 13 12 13C12.5523 13 13 12.5523 13 12C13 11.4477 12.5523 11 12 11ZM9 12C9 10.3431 10.3431 9 12 9C13.6569 9 15 10.3431 15 12C15 13.6569 13.6569 15 12 15C10.3431 15 9 13.6569 9 12ZM20 11C19.4477 11 19 11.4477 19 12C19 12.5523 19.4477 13 20 13C20.5523 13 21 12.5523 21 12C21 11.4477 20.5523 11 20 11ZM17 12C17 10.3431 18.3431 9 20 9C21.6569 9 23 10.3431 23 12C23 13.6569 21.6569 15 20 15C18.3431 15 17 13.6569 17 12Z" fill="black"/>
</svg>
