<svg width="24" height="24" viewBox="0 0 24 24" fill="none" xmlns="http://www.w3.org/2000/svg">
<path fill-rule="evenodd" clip-rule="evenodd" d="M9 3C7.34315 3 6 4.34315 6 6H8C8 5.44772 8.44772 5 9 5H18C18.5523 5 19 5.44772 19 6V15C19 15.5523 18.5523 16 18 16V18C19.6569 18 21 16.6569 21 15V6C21 4.34315 19.6569 3 18 3H9ZM3 9C3 7.34315 4.34315 6 6 6H15C16.6569 6 18 7.34315 18 9V18C18 19.6569 16.6569 21 15 21H6C4.34315 21 3 19.6569 3 18V9ZM6 8C5.44772 8 5 8.44772 5 9V18C5 18.5523 5.44772 19 6 19H15C15.5523 19 16 18.5523 16 18V9C16 8.44772 15.5523 8 15 8H6Z" fill="currentColor"/>
</svg>
