<svg width="24" height="24" viewBox="0 0 24 24" fill="none" xmlns="http://www.w3.org/2000/svg">
<path d="M7.55279 4.15836C8.06096 3.14201 9.09975 2.5 10.2361 2.5H13.7639C14.9002 2.5 15.939 3.14201 16.4472 4.15836L17.118 5.5H19C20.6569 5.5 22 6.84315 22 8.5V18C22 19.6569 20.6569 21 19 21H5C3.34315 21 2 19.6569 2 18V8.5C2 6.84315 3.34315 5.5 5 5.5H6.88197L7.55279 4.15836ZM9 13C9 11.3431 10.3431 10 12 10C13.6569 10 15 11.3431 15 13C15 14.6569 13.6569 16 12 16C10.3431 16 9 14.6569 9 13ZM12 8C9.23858 8 7 10.2386 7 13C7 15.7614 9.23858 18 12 18C14.7614 18 17 15.7614 17 13C17 10.2386 14.7614 8 12 8Z" fill="black"/>
</svg>
