<svg width="24" height="24" viewBox="0 0 24 24" fill="none" xmlns="http://www.w3.org/2000/svg">
<path d="M2 6.5C2 4.84315 3.34315 3.5 5 3.5H19C20.6569 3.5 22 4.84315 22 6.5V17.5C22 19.1569 20.6569 20.5 19 20.5H5C3.34315 20.5 2 19.1569 2 17.5V6.5ZM19 5.5H5C4.44772 5.5 4 5.94772 4 6.5V11.5858L6.79289 8.79289C7.18342 8.40237 7.81658 8.40237 8.20711 8.79289L13.5 14.0858L15.2929 12.2929C15.6834 11.9024 16.3166 11.9024 16.7071 12.2929L20 15.5858V6.5C20 5.94771 19.5523 5.5 19 5.5ZM19.7487 18.1629L16 14.4142L14.2071 16.2071C13.8166 16.5976 13.1834 16.5976 12.7929 16.2071L7.5 10.9142L4 14.4142V17.5C4 18.0523 4.44772 18.5 5 18.5H19C19.298 18.5 19.5655 18.3697 19.7487 18.1629Z" fill="black"/>
</svg>
