<svg width="24" height="24" viewBox="0 0 24 24" fill="none" xmlns="http://www.w3.org/2000/svg">
<path d="M2 6.5C2 4.84315 3.34315 3.5 5 3.5H19C20.6569 3.5 22 4.84315 22 6.5V17.0858L16.7071 11.7929C16.3166 11.4024 15.6834 11.4024 15.2929 11.7929L13.5 13.5858L8.20711 8.29289C7.81658 7.90237 7.18342 7.90237 6.79289 8.29289L2 13.0858V6.5ZM2 15.9142V17.5C2 19.1569 3.34315 20.5 5 20.5H19C19.9778 20.5 20.8463 20.0322 21.394 19.3082L16 13.9142L14.2071 15.7071C13.8166 16.0976 13.1834 16.0976 12.7929 15.7071L7.5 10.4142L2 15.9142Z" fill="black"/>
</svg>
