<svg width="24" height="24" viewBox="0 0 24 24" fill="none" xmlns="http://www.w3.org/2000/svg">
<path d="M11.0004 16.5C11.0004 17.0522 11.4481 17.5 12.0004 17.5C12.5527 17.5 13.0004 17.0522 13.0004 16.5V13H16.5C17.0523 13 17.5 12.5523 17.5 12C17.5 11.4477 17.0523 11 16.5 11H13.0004V7.49995C13.0004 6.94767 12.5527 6.49995 12.0004 6.49995C11.4481 6.49995 11.0004 6.94767 11.0004 7.49995V11H7.50004C6.94776 11 6.50004 11.4477 6.50004 12C6.50004 12.5523 6.94776 13 7.50004 13H11.0004V16.5ZM12.0003 22C6.47737 22 2.0001 17.5228 2.00018 11.9999C2.00026 6.47709 6.47745 2.00003 12.0002 2C17.5231 1.99997 22.0004 6.47718 22.0004 12.0001C22.0003 17.5229 17.5231 22 12.0003 22Z" fill="black"/>
</svg>
