<svg width="24" height="24" viewBox="0 0 24 24" fill="none" xmlns="http://www.w3.org/2000/svg">
<path d="M6.63961 4.5C6.16293 4.5 5.75251 4.83646 5.65903 5.30388L4.7198 10H19.2802L18.341 5.30388C18.2475 4.83646 17.8371 4.5 17.3604 4.5H6.63961ZM19.5 12H4.5V18.5C4.5 19.0523 4.94772 19.5 5.5 19.5H18.5C19.0523 19.5 19.5 19.0523 19.5 18.5V12ZM3.69787 4.91165C3.97832 3.50938 5.20956 2.5 6.63961 2.5H17.3604C18.7904 2.5 20.0217 3.50938 20.3021 4.91165L21.4806 10.8039C21.4935 10.8685 21.5 10.9341 21.5 11V18.5C21.5 20.1569 20.1569 21.5 18.5 21.5H5.5C3.84315 21.5 2.5 20.1569 2.5 18.5V11C2.5 10.9341 2.5065 10.8685 2.51942 10.8039L3.69787 4.91165ZM8 7C8 6.44772 8.44772 6 9 6H15C15.5523 6 16 6.44772 16 7C16 7.55228 15.5523 8 15 8H9C8.44772 8 8 7.55228 8 7ZM15.2071 13.2929C15.5976 13.6834 15.5976 14.3166 15.2071 14.7071L11.7071 18.2071C11.3166 18.5976 10.6834 18.5976 10.2929 18.2071L8.79289 16.7071C8.40237 16.3166 8.40237 15.6834 8.79289 15.2929C9.18342 14.9024 9.81658 14.9024 10.2071 15.2929L11 16.0858L13.7929 13.2929C14.1834 12.9024 14.8166 12.9024 15.2071 13.2929Z" fill="black"/>
</svg>
