<svg width="24" height="24" viewBox="0 0 24 24" fill="none" xmlns="http://www.w3.org/2000/svg">
<path d="M3.69787 4.91165C3.97832 3.50938 5.20956 2.5 6.63961 2.5H17.3604C18.7904 2.5 20.0217 3.50938 20.3021 4.91165L21.1198 9H2.8802L3.69787 4.91165ZM2.5 11H21.5V18.5C21.5 20.1569 20.1569 21.5 18.5 21.5H5.5C3.84315 21.5 2.5 20.1569 2.5 18.5V11ZM9 5C8.44772 5 8 5.44772 8 6C8 6.55228 8.44772 7 9 7H15C15.5523 7 16 6.55228 16 6C16 5.44772 15.5523 5 15 5H9ZM15.2071 14.7071C15.5976 14.3166 15.5976 13.6834 15.2071 13.2929C14.8166 12.9024 14.1834 12.9024 13.7929 13.2929L11 16.0858L10.2071 15.2929C9.81658 14.9024 9.18342 14.9024 8.79289 15.2929C8.40237 15.6834 8.40237 16.3166 8.79289 16.7071L10.2929 18.2071C10.6834 18.5976 11.3166 18.5976 11.7071 18.2071L15.2071 14.7071Z" fill="black"/>
</svg>
