<svg width="24" height="24" viewBox="0 0 24 24" fill="none" xmlns="http://www.w3.org/2000/svg">
<path d="M12 4C9.51475 4 7.50003 6.01472 7.50003 8.5C7.50003 10.9853 9.51475 13 12 13C14.4853 13 16.5 10.9853 16.5 8.5C16.5 6.01472 14.4853 4 12 4ZM5.50003 8.5C5.50003 4.91015 8.41018 2 12 2C15.5899 2 18.5 4.91015 18.5 8.5C18.5 10.9892 17.1008 13.1516 15.0459 14.2436C16.7129 14.5365 18.0696 15.0912 19.1115 15.8962C20.7682 17.1764 21.5 18.9898 21.5 21C21.5 21.5523 21.0523 22 20.5 22C19.9477 22 19.5 21.5523 19.5 21C19.5 19.5102 18.9818 18.3236 17.8886 17.4788C16.756 16.6036 14.8823 16 12 16C9.11774 16 7.24405 16.6036 6.11145 17.4788C5.01817 18.3236 4.5 19.5102 4.5 21C4.5 21.5523 4.05228 22 3.5 22C2.94772 22 2.5 21.5523 2.5 21C2.5 18.9898 3.23183 17.1764 4.88856 15.8962C5.93041 15.0911 7.28716 14.5365 8.95412 14.2436C6.89927 13.1516 5.50003 10.9892 5.50003 8.5Z" fill="black"/>
</svg>
