<svg width="24" height="24" viewBox="0 0 24 24" fill="none" xmlns="http://www.w3.org/2000/svg">
<path d="M12.0001 15C15.5899 15 18.5001 12.0899 18.5001 8.5C18.5001 4.91015 15.5899 2 12.0001 2C8.41023 2 5.50008 4.91015 5.50008 8.5C5.50008 12.0899 8.41023 15 12.0001 15ZM5.88573 15.2133C4.04376 16.2204 3.17576 17.8774 3.02438 20.2194C2.99478 20.6773 3.31085 21.0759 3.76038 21.168C5.15044 21.4529 8.3017 22 12.0001 22C15.6985 22 18.8497 21.4529 20.2398 21.168C20.6893 21.0759 21.0054 20.6773 20.9758 20.2194C20.8244 17.8774 19.9564 16.2204 18.1144 15.2133C17.7778 15.0292 17.3684 15.1017 17.0603 15.3303C15.6465 16.3794 13.8958 17 12.0001 17C10.1044 17 8.35364 16.3794 6.9399 15.3303C6.63177 15.1017 6.22239 15.0292 5.88573 15.2133Z" fill="black"/>
</svg>
