<svg width="24" height="24" viewBox="0 0 24 24" fill="none" xmlns="http://www.w3.org/2000/svg">
<path d="M12 22C17.5228 22 21.9999 17.5228 21.9999 12C21.9999 6.47715 17.5228 2 12 2C6.47714 2 2 6.47715 2 12C2 17.5228 6.47714 22 12 22ZM10.5 7C10.9168 7 11.29 7.25857 11.4363 7.64888L13.5 13.152L14.0637 11.6489C14.21 11.2586 14.5832 11 15 11H18C18.5523 11 19 11.4477 19 12C19 12.5523 18.5523 13 18 13H15.693L14.4363 16.3511C14.29 16.7414 13.9168 17 13.5 17C13.0832 17 12.71 16.7414 12.5637 16.3511L10.5 10.848L9.93633 12.3511C9.78997 12.7414 9.41684 13 9 13H6C5.44772 13 5 12.5523 5 12C5 11.4477 5.44772 11 6 11H8.307L9.56367 7.64888C9.71003 7.25857 10.0832 7 10.5 7Z" fill="black"/>
</svg>
