<svg width="24" height="24" viewBox="0 0 24 24" fill="none" xmlns="http://www.w3.org/2000/svg">
<path d="M11.4363 7.64888C11.29 7.25857 10.9168 7 10.5 7C10.0832 7 9.71003 7.25857 9.56367 7.64888L8.307 11H6C5.44772 11 5 11.4477 5 12C5 12.5523 5.44772 13 6 13H9C9.41684 13 9.78997 12.7414 9.93633 12.3511L10.5 10.848L12.5637 16.3511C12.71 16.7414 13.0832 17 13.5 17C13.9168 17 14.29 16.7414 14.4363 16.3511L15.693 13H18C18.5523 13 19 12.5523 19 12C19 11.4477 18.5523 11 18 11H15C14.5832 11 14.21 11.2586 14.0637 11.6489L13.5 13.152L11.4363 7.64888ZM12 22C17.5228 22 21.9999 17.5228 21.9999 12C21.9999 6.47715 17.5228 2 12 2C6.47714 2 2 6.47715 2 12C2 17.5228 6.47714 22 12 22ZM12 20C7.58169 20 3.99995 16.4182 3.99995 12C3.99995 7.58171 7.58169 4 12 4C16.4182 4 20 7.58173 20 12C20 16.4183 16.4182 20 12 20Z" fill="black"/>
</svg>
