<svg width="24" height="24" viewBox="0 0 24 24" fill="none" xmlns="http://www.w3.org/2000/svg">
<path d="M12 17C14.7614 17 16.9999 14.7614 16.9999 12C16.9999 9.23863 14.7614 7.00001 12 7.00001C9.2387 7.00001 7.00019 9.23852 7.00009 11.9998C6.99999 14.7613 9.23856 17 12 17ZM12.0001 22C6.47728 22 2.00001 17.5228 2.00005 11.9999C2.00009 6.47713 6.47732 2.00003 12.0001 2.00003C17.523 2.00003 22.0002 6.47721 22.0002 12.0001C22.0002 17.5229 17.523 22 12.0001 22ZM11.9998 20C16.4181 20 19.9998 16.4183 19.9998 12C19.9998 7.58177 16.4181 4.00006 11.9998 4.00006C7.58159 4.00006 3.99985 7.58177 3.99985 12C3.99985 16.4183 7.58159 20 11.9998 20Z" fill="black"/>
</svg>
