<svg width="24" height="24" viewBox="0 0 24 24" fill="none" xmlns="http://www.w3.org/2000/svg">
<path d="M20 1.5C20 0.947715 19.5523 0.5 19 0.5C18.4477 0.5 18 0.947715 18 1.5V4H15.5C14.9477 4 14.5 4.44772 14.5 5C14.5 5.55228 14.9477 6 15.5 6H18V8.5C18 9.05228 18.4477 9.5 19 9.5C19.5523 9.5 20 9.05228 20 8.5V6H22.5C23.0523 6 23.5 5.55228 23.5 5C23.5 4.44772 23.0523 4 22.5 4H20V1.5ZM4 12C4 7.58172 7.58172 4 12 4C12.5523 4 13 3.55228 13 3C13 2.44772 12.5523 2 12 2C6.47715 2 2 6.47715 2 12C2 17.5228 6.47715 22 12 22C17.5228 22 22 17.5228 22 12C22 11.4477 21.5523 11 21 11C20.4477 11 20 11.4477 20 12C20 16.4183 16.4183 20 12 20C7.58172 20 4 16.4183 4 12ZM9 11.5C9.82843 11.5 10.5 10.8284 10.5 10C10.5 9.17157 9.82843 8.5 9 8.5C8.17157 8.5 7.5 9.17157 7.5 10C7.5 10.8284 8.17157 11.5 9 11.5ZM15 11.5C15.8284 11.5 16.5 10.8284 16.5 10C16.5 9.17157 15.8284 8.5 15 8.5C14.1716 8.5 13.5 9.17157 13.5 10C13.5 10.8284 14.1716 11.5 15 11.5ZM7.9453 13.6679C7.49131 13.9706 7.36572 14.602 7.66859 15.0557C7.94927 15.4674 8.34642 15.8078 8.7578 16.0821C9.47053 16.5572 10.5364 17 12 17C13.4636 17 14.5295 16.5572 15.2422 16.0821C15.6577 15.805 16.0527 15.4731 16.3321 15.0547C16.6384 14.5952 16.5142 13.9743 16.0547 13.6679C15.2074 13.1031 14.7365 14.0155 14.1328 14.4179C13.7205 14.6928 13.0364 15 12 15C10.9636 15 10.2795 14.6928 9.8672 14.4179C9.26353 14.0155 8.79261 13.1031 7.9453 13.6679Z" fill="black"/>
</svg>
