<svg width="24" height="24" viewBox="0 0 24 24" fill="none" xmlns="http://www.w3.org/2000/svg">
<path d="M19.5 0.5C20.0523 0.5 20.5 0.947715 20.5 1.5V3.5H22.5C23.0523 3.5 23.5 3.94772 23.5 4.5C23.5 5.05228 23.0523 5.5 22.5 5.5H20.5V7.5C20.5 8.05228 20.0523 8.5 19.5 8.5C18.9477 8.5 18.5 8.05228 18.5 7.5V5.5H16.5C15.9477 5.5 15.5 5.05228 15.5 4.5C15.5 3.94772 15.9477 3.5 16.5 3.5H18.5V1.5C18.5 0.947715 18.9477 0.5 19.5 0.5ZM14.4562 2.30388C13.6704 2.10543 12.8475 2 12 2C6.47715 2 2 6.47715 2 12C2 17.5228 6.47715 22 12 22C17.5228 22 22 17.5228 22 12C22 11.1525 21.8946 10.3296 21.6961 9.5438C21.1484 10.1321 20.3672 10.5 19.5 10.5C17.8431 10.5 16.5 9.15685 16.5 7.5C14.8431 7.5 13.5 6.15685 13.5 4.5C13.5 3.63283 13.8679 2.85159 14.4562 2.30388ZM10.5 11C10.5 11.8284 9.82843 12.5 9 12.5C8.17157 12.5 7.5 11.8284 7.5 11C7.5 10.1716 8.17157 9.5 9 9.5C9.82843 9.5 10.5 10.1716 10.5 11ZM16.5 11C16.5 11.8284 15.8284 12.5 15 12.5C14.1716 12.5 13.5 11.8284 13.5 11C13.5 10.1716 14.1716 9.5 15 9.5C15.8284 9.5 16.5 10.1716 16.5 11ZM12.0001 18C10.5365 18 9.47064 17.5572 8.75791 17.0821C8.34653 16.8078 7.94938 16.4674 7.6687 16.0557C7.36583 15.602 7.49143 14.9706 7.94541 14.668C8.57461 14.2485 8.99626 14.6437 9.41883 15.0397C9.56532 15.177 9.71192 15.3144 9.86731 15.418C10.2796 15.6928 10.9638 16 12.0001 16C13.0365 16 13.7206 15.6928 14.1329 15.418C14.2883 15.3144 14.4349 15.177 14.5814 15.0397C15.004 14.6437 15.4256 14.2485 16.0548 14.668C16.5143 14.9743 16.6385 15.5952 16.3322 16.0547C16.0528 16.4731 15.6578 16.8051 15.2423 17.0821C14.5296 17.5572 13.4638 18 12.0001 18Z" fill="black"/>
</svg>
