<svg width="24" height="24" viewBox="0 0 24 24" fill="none" xmlns="http://www.w3.org/2000/svg">
<path d="M6 12C6 8.68629 8.68629 6 12 6C14.2199 6 16.1599 7.20612 17.1976 9H14C13.4477 9 13 9.44772 13 10C13 10.5523 13.4477 11 14 11H19C19.5523 11 20 10.5523 20 10V5C20 4.44772 19.5523 4 19 4C18.4477 4 18 4.44772 18 5V6.70863C16.5345 5.04786 14.3902 4 12 4C7.58172 4 4 7.58172 4 12C4 16.4183 7.58172 20 12 20C15.6255 20 18.6853 17.5891 19.6686 14.2853C19.8261 13.7559 19.5247 13.1991 18.9954 13.0415C18.466 12.884 17.9092 13.1854 17.7517 13.7148C17.0138 16.1939 14.7165 18 12 18C8.68629 18 6 15.3137 6 12Z" fill="black"/>
</svg>
