<svg width="24" height="24" viewBox="0 0 24 24" fill="none" xmlns="http://www.w3.org/2000/svg">
<path d="M10.5 18.5H10C5.58172 18.5 2 14.9183 2 10.5C2 6.08172 5.58172 2.5 10 2.5H13.6056C18.2417 2.5 22 6.25831 22 10.8944C22 13.4849 20.804 15.9302 18.7593 17.5206L13.5041 21.6079C13.1774 21.862 12.7753 22 12.3614 22C11.3334 22 10.5 21.1666 10.5 20.1386V18.5ZM10.5 16.5C11.6046 16.5 12.5 17.3954 12.5 18.5V19.8552L17.5314 15.9419C19.089 14.7304 20 12.8677 20 10.8944C20 7.36288 17.1371 4.5 13.6056 4.5H10C6.68629 4.5 4 7.18629 4 10.5C4 13.8137 6.68629 16.5 10 16.5H10.5Z" fill="black"/>
</svg>
