<svg width="24" height="24" viewBox="0 0 24 24" fill="none" xmlns="http://www.w3.org/2000/svg">
<path d="M4 3C4 2.44772 4.44772 2 5 2H19C19.5523 2 20 2.44772 20 3C20 3.55228 19.5523 4 19 4H5C4.44772 4 4 3.55228 4 3ZM11.293 5.29289C11.6835 4.90237 12.3167 4.90237 12.7072 5.29289L19.7072 12.2929C20.0977 12.6834 20.0977 13.3166 19.7072 13.7071C19.3167 14.0976 18.6835 14.0976 18.293 13.7071L13.0001 8.41421V22C13.0001 22.5523 12.5524 23 12.0001 23C11.4478 23 11.0001 22.5523 11.0001 22V8.41421L5.70718 13.7071C5.31666 14.0976 4.68349 14.0976 4.29297 13.7071C3.90244 13.3166 3.90244 12.6834 4.29297 12.2929L11.293 5.29289Z" fill="black"/>
</svg>
