<svg width="24" height="24" viewBox="0 0 24 24" fill="none" xmlns="http://www.w3.org/2000/svg">
<path d="M10.5 2.59961C14.863 2.59961 18.4004 6.13695 18.4004 10.5C18.4004 12.3251 17.7803 14.0065 16.7412 15.3438L16.6865 15.4141L16.749 15.4766L21.1367 19.8633C21.4882 20.2148 21.4882 20.7852 21.1367 21.1367C20.7852 21.4882 20.2148 21.4882 19.8633 21.1367L15.4766 16.749L15.4141 16.6865L15.3438 16.7412C14.0065 17.7803 12.3251 18.4004 10.5 18.4004C6.13695 18.4004 2.59961 14.863 2.59961 10.5C2.59961 6.13695 6.13695 2.59961 10.5 2.59961ZM10.5 4.40039C7.13106 4.40039 4.40039 7.13106 4.40039 10.5C4.40039 13.8689 7.13106 16.5996 10.5 16.5996C12.1847 16.5996 13.7086 15.9184 14.8135 14.8135C15.9184 13.7086 16.5996 12.1847 16.5996 10.5C16.5996 7.13106 13.8689 4.40039 10.5 4.40039Z" fill="black" stroke="black" stroke-width="0.2" stroke-linecap="round"/>
</svg>
