<svg width="24" height="24" viewBox="0 0 24 24" fill="none" xmlns="http://www.w3.org/2000/svg">
<path d="M10.5 2.59961C14.863 2.59961 18.4004 6.13695 18.4004 10.5C18.4004 12.2356 17.8392 13.8412 16.8906 15.1445L16.8408 15.2139L16.9004 15.2744L21.0635 19.4365C21.5126 19.8856 21.5126 20.6144 21.0635 21.0635C20.6144 21.5126 19.8856 21.5126 19.4365 21.0635L15.2744 16.9004L15.2139 16.8408L15.1445 16.8906C13.8412 17.8392 12.2356 18.4004 10.5 18.4004C6.13695 18.4004 2.59961 14.863 2.59961 10.5C2.59961 6.13695 6.13695 2.59961 10.5 2.59961ZM10.5 4.90039C7.40721 4.90039 4.90039 7.40721 4.90039 10.5C4.90039 13.5928 7.40721 16.0996 10.5 16.0996C12.0467 16.0996 13.4453 15.4746 14.46 14.46C15.4746 13.4453 16.0996 12.0467 16.0996 10.5C16.0996 7.40721 13.5928 4.90039 10.5 4.90039Z" fill="black" stroke="black" stroke-width="0.2" stroke-linecap="round"/>
</svg>
