<svg width="24" height="24" viewBox="0 0 24 24" fill="none" xmlns="http://www.w3.org/2000/svg">
<path d="M21.0002 8.09953V11.0001C21.0001 15.2383 19.2261 19.0331 13.1715 21.9665C12.4326 22.3245 11.5679 22.3245 10.829 21.9666C4.77428 19.0331 3 15.2383 3 11.0001L3.00006 8.09951C3.00009 6.51877 3.93104 5.08632 5.37554 4.44434L10.3758 2.22206C11.41 1.7624 12.5906 1.76241 13.6249 2.22208L18.6248 4.44429C20.0693 5.0863 21.0002 6.51878 21.0002 8.09953ZM5 11.0001C5.00001 12.8275 5.37783 14.4331 6.32043 15.8819C7.27168 17.3441 8.90641 18.8127 11.701 20.1667C11.8892 20.2578 12.1113 20.2578 12.2994 20.1667C15.094 18.8127 16.7286 17.3441 17.6798 15.882C18.6224 14.4331 19.0002 12.8275 19.0002 11.0001V8.09953C19.0002 7.30916 18.5348 6.59292 17.8125 6.27191L12.8126 4.0497C12.2955 3.81986 11.7052 3.81986 11.188 4.04969L6.1878 6.27197C5.46555 6.59296 5.00008 7.30918 5.00006 8.09955L5 11.0001ZM16.2071 9.29289C16.5976 9.68342 16.5976 10.3166 16.2071 10.7071L11.7071 15.2071C11.3166 15.5976 10.6834 15.5976 10.2929 15.2071L7.79289 12.7071C7.40237 12.3166 7.40237 11.6834 7.79289 11.2929C8.18342 10.9024 8.81658 10.9024 9.20711 11.2929L11 13.0858L14.7929 9.29289C15.1834 8.90237 15.8166 8.90237 16.2071 9.29289Z" fill="black"/>
</svg>
