<svg width="24" height="24" viewBox="0 0 24 24" fill="none" xmlns="http://www.w3.org/2000/svg">
<path d="M3 11.0001L3.00006 8.09951C3.00009 6.51877 3.93104 5.08632 5.37554 4.44434L10.3758 2.22206C11.41 1.7624 12.5906 1.76241 13.6249 2.22208L18.6248 4.44429C20.0693 5.0863 21.0002 6.51878 21.0002 8.09953V11.0001C21.0001 15.2383 19.2261 19.0331 13.1715 21.9665C12.4326 22.3245 11.5679 22.3245 10.829 21.9666C4.77428 19.0331 3 15.2383 3 11.0001ZM16.2071 10.7071C16.5976 10.3166 16.5976 9.68342 16.2071 9.29289C15.8166 8.90237 15.1834 8.90237 14.7929 9.29289L11 13.0858L9.20711 11.2929C8.81658 10.9024 8.18342 10.9024 7.79289 11.2929C7.40237 11.6834 7.40237 12.3166 7.79289 12.7071L10.2929 15.2071C10.6834 15.5976 11.3166 15.5976 11.7071 15.2071L16.2071 10.7071Z" fill="black"/>
</svg>
