<svg width="24" height="24" viewBox="0 0 24 24" fill="none" xmlns="http://www.w3.org/2000/svg">
<path d="M11.0002 1C9.89566 1 9.00023 1.89543 9.00023 3V4.04484C8.12614 4.37461 7.32124 4.84397 6.61257 5.42528L5.7061 4.90193C4.74951 4.34964 3.52633 4.67739 2.97405 5.63398L1.97405 7.36603C1.42176 8.32262 1.74951 9.5458 2.7061 10.0981L3.61169 10.6209C3.53831 11.0703 3.50023 11.531 3.50023 12C3.50023 12.469 3.5383 12.9297 3.61167 13.379L2.7059 13.9019C1.74931 14.4542 1.42156 15.6774 1.97385 16.634L2.97385 18.366C3.52613 19.3226 4.74931 19.6504 5.7059 19.0981L6.61249 18.5746C7.32118 19.156 8.1261 19.6254 9.00023 19.9552V21C9.00023 22.1046 9.89566 23 11.0002 23H13.0002C14.1048 23 15.0002 22.1046 15.0002 21V19.9552C15.8743 19.6254 16.6793 19.156 17.388 18.5747L18.2946 19.0981C19.2511 19.6504 20.4743 19.3226 21.0266 18.366L22.0266 16.634C22.5789 15.6774 22.2511 14.4542 21.2946 13.9019L20.3888 13.379C20.4621 12.9297 20.5002 12.469 20.5002 12C20.5002 11.531 20.4621 11.0703 20.3888 10.6209L21.2944 10.0981C22.2509 9.54579 22.5787 8.32261 22.0264 7.36602L21.0264 5.63397C20.4741 4.67738 19.2509 4.34963 18.2944 4.90192L17.3879 5.42528C16.6792 4.84397 15.8743 4.37461 15.0002 4.04484V3C15.0002 1.89543 14.1048 1 13.0002 1H11.0002ZM11.0002 3H13.0002V4.76962C13.0002 5.21944 13.3006 5.6139 13.7342 5.73357C14.8132 6.0314 15.7812 6.60134 16.5588 7.36651C16.8793 7.68184 17.3708 7.74453 17.7602 7.51973L19.2944 6.63397L20.2944 8.36602L18.7618 9.25082C18.3727 9.4755 18.1812 9.93215 18.2937 10.3672C18.4283 10.8879 18.5002 11.4348 18.5002 12C18.5002 12.5652 18.4283 13.1121 18.2937 13.6327C18.1812 14.0678 18.3727 14.5244 18.7619 14.7491L20.2946 15.634L19.2946 17.366L17.7603 16.4802C17.3709 16.2554 16.8794 16.3181 16.5589 16.6334C15.7812 17.3986 14.8133 17.9686 13.7342 18.2664C13.3006 18.3861 13.0002 18.7806 13.0002 19.2304V21H11.0002V19.2304C11.0002 18.7806 10.6999 18.3861 10.2663 18.2664C9.18718 17.9686 8.21923 17.3986 7.44157 16.6334C7.12109 16.3181 6.62956 16.2554 6.24019 16.4802L4.7059 17.366L3.7059 15.634L5.23859 14.7491C5.62773 14.5244 5.81923 14.0677 5.70674 13.6327C5.57212 13.1121 5.50023 12.5652 5.50023 12C5.50023 11.4348 5.57213 10.8879 5.70677 10.3672C5.81926 9.93216 5.62776 9.47551 5.23861 9.25083L3.7061 8.36603L4.7061 6.63398L6.24027 7.51973C6.62963 7.74453 7.12115 7.68184 7.44163 7.36651C8.21928 6.60134 9.18721 6.0314 10.2663 5.73357C10.6999 5.6139 11.0002 5.21944 11.0002 4.76962V3ZM10 12C10 10.8954 10.8955 10 12 10C13.1046 10 14 10.8954 14 12C14 13.1046 13.1046 14 12 14C10.8955 14 10 13.1046 10 12ZM12 8C9.79089 8 8.00003 9.79086 8.00003 12C8.00003 14.2091 9.79089 16 12 16C14.2092 16 16 14.2091 16 12C16 9.79086 14.2092 8 12 8Z" fill="black"/>
</svg>
