<svg width="24" height="24" viewBox="0 0 24 24" fill="none" xmlns="http://www.w3.org/2000/svg">
<path d="M9.00025 3C9.00025 1.89543 9.89569 1 11.0003 1H13.0003C14.1048 1 15.0003 1.89543 15.0003 3V4.58185C15.6955 4.86326 16.3417 5.2393 16.9231 5.6937L18.2945 4.90192C19.2511 4.34964 20.4742 4.67739 21.0265 5.63398L22.0265 7.36603C22.5788 8.32261 22.2511 9.54579 21.2945 10.0981L19.922 10.8905C20.0213 11.6214 20.0213 12.3787 19.922 13.1096L21.2944 13.9019C22.2509 14.4542 22.5787 15.6774 22.0264 16.634L21.0264 18.366C20.4741 19.3226 19.2509 19.6504 18.2944 19.0981L16.923 18.3063C16.3417 18.7607 15.6954 19.1367 15.0003 19.4181V21C15.0003 22.1046 14.1048 23 13.0003 23H11.0003C9.89568 23 9.00025 22.1046 9.00025 21V19.4183C8.30498 19.1369 7.65869 18.7608 7.07727 18.3064L5.70603 19.0981C4.74944 19.6504 3.52626 19.3226 2.97397 18.366L1.97397 16.634C1.42169 15.6774 1.74944 14.4542 2.70602 13.9019L4.07822 13.1097C3.97892 12.3787 3.97892 11.6214 4.07821 10.8904L2.7059 10.0981C1.74932 9.54579 1.42156 8.32261 1.97385 7.36602L2.97385 5.63397C3.52613 4.67738 4.74931 4.34963 5.7059 4.90192L7.07722 5.69365C7.65865 5.23921 8.30496 4.86315 9.00025 4.58174V3ZM12 15C13.6569 15 15 13.6569 15 12C15 10.3431 13.6569 9 12 9C10.3431 9 9 10.3431 9 12C9 13.6569 10.3431 15 12 15Z" fill="black"/>
</svg>
