<svg width="24" height="24" viewBox="0 0 24 24" fill="none" xmlns="http://www.w3.org/2000/svg">
<path d="M11.2929 2.79289C11.6834 2.40237 12.3166 2.40237 12.7071 2.79289L16.7071 6.79289C17.0976 7.18342 17.0976 7.81658 16.7071 8.20711C16.3166 8.59763 15.6834 8.59763 15.2929 8.20711L13 5.91421V13C13 13.5523 12.5523 14 12 14C11.4477 14 11 13.5523 11 13V5.91421L8.70711 8.20711C8.31658 8.59763 7.68342 8.59763 7.29289 8.20711C6.90237 7.81658 6.90237 7.18342 7.29289 6.79289L11.2929 2.79289ZM4 11C4.55228 11 5 11.4477 5 12V19H19V12C19 11.4477 19.4477 11 20 11C20.5523 11 21 11.4477 21 12V19C21 20.1046 20.1046 21 19 21H5C3.89543 21 3 20.1046 3 19V12C3 11.4477 3.44772 11 4 11Z" fill="black"/>
</svg>
