<svg width="24" height="24" viewBox="0 0 24 24" fill="none" xmlns="http://www.w3.org/2000/svg">
<path d="M10.638 2.56546C11.1741 1.40315 12.826 1.40315 13.3621 2.56546L15.6361 7.49539L21.0274 8.13461C22.2985 8.28532 22.809 9.8564 21.8692 10.7255L17.8833 14.4116L18.9414 19.7365C19.1908 20.992 17.8544 21.963 16.7375 21.3378L12 18.686L7.26264 21.3378C6.14573 21.963 4.80928 20.992 5.05874 19.7365L6.11681 14.4115L2.13086 10.7255C1.19111 9.85641 1.70158 8.28532 2.97267 8.13462L8.36401 7.49539L10.638 2.56546ZM12 4.38748L10.0629 8.58722C9.84439 9.06093 9.39547 9.3871 8.87742 9.44852L4.28461 9.99307L7.68019 13.1332C8.0632 13.4874 8.23467 14.0151 8.13301 14.5268L7.23165 19.0631L11.2674 16.8041C11.7226 16.5493 12.2775 16.5493 12.7327 16.8041L16.7685 19.0631L15.8671 14.5268C15.7654 14.0151 15.9369 13.4874 16.3199 13.1332L19.7155 9.99307L15.1227 9.44852C14.6046 9.3871 14.1557 9.06093 13.9372 8.58722L12 4.38748Z" fill="black"/>
</svg>
