<svg width="24" height="24" viewBox="0 0 24 24" fill="none" xmlns="http://www.w3.org/2000/svg">
<path d="M21.9999 12C21.9999 17.5228 17.5228 22 12 22C6.47714 22 2 17.5228 2 12C2 6.47715 6.47714 2 12 2C17.5228 2 21.9999 6.47715 21.9999 12ZM3.99995 12C3.99995 16.4182 7.58169 20 12 20C13.8487 20 15.5509 19.3729 16.9056 18.3198L5.68012 7.09433C4.62704 8.44901 3.99995 10.1513 3.99995 12ZM18.3197 16.9056C19.3728 15.5509 19.9999 13.8487 19.9999 12C19.9999 7.58173 16.4181 4 11.9999 4C10.1512 4 8.44892 4.62707 7.09424 5.68012L18.3197 16.9056Z" fill="black"/>
</svg>
