<svg width="24" height="24" viewBox="0 0 24 24" fill="none" xmlns="http://www.w3.org/2000/svg">
<path d="M18.5 10.5C20.9853 10.5 23 8.48528 23 6C23 3.51472 20.9853 1.5 18.5 1.5C16.0147 1.5 14 3.51472 14 6C14 8.48528 16.0147 10.5 18.5 10.5ZM22 11.4782V18.5C22 20.1569 20.6569 21.5 19 21.5H5C3.34315 21.5 2 20.1569 2 18.5V9C2 7.34315 3.34315 6 5 6H6.88197L7.55279 4.65836C8.06096 3.64201 9.09975 3 10.2361 3H12.7322C12.2644 3.89751 12 4.91787 12 6C12 6.89573 12.1812 7.74914 12.5089 8.52558C12.3416 8.50867 12.1718 8.5 12 8.5C9.23858 8.5 7 10.7386 7 13.5C7 16.2614 9.23858 18.5 12 18.5C14.7614 18.5 17 16.2614 17 13.5C17 13.0825 16.9488 12.677 16.8524 12.2894C17.3786 12.4268 17.9308 12.5 18.5 12.5C19.7886 12.5 20.9897 12.125 22 11.4782ZM12 10.5C10.3431 10.5 9 11.8431 9 13.5C9 15.1569 10.3431 16.5 12 16.5C13.6569 16.5 15 15.1569 15 13.5C15 11.8431 13.6569 10.5 12 10.5ZM18.5 3.25C18.9142 3.25 19.25 3.58579 19.25 4V5.25H20.5C20.9142 5.25 21.25 5.58579 21.25 6C21.25 6.41421 20.9142 6.75 20.5 6.75H19.25V8C19.25 8.41421 18.9142 8.75 18.5 8.75C18.0858 8.75 17.75 8.41421 17.75 8V6.75H16.5C16.0858 6.75 15.75 6.41421 15.75 6C15.75 5.58579 16.0858 5.25 16.5 5.25H17.75V4C17.75 3.58579 18.0858 3.25 18.5 3.25Z" fill="black"/>
</svg>
