<svg width="24" height="24" viewBox="0 0 24 24" fill="none" xmlns="http://www.w3.org/2000/svg">
<path d="M18.5 10.5C20.9853 10.5 23 8.48528 23 6C23 3.51472 20.9853 1.5 18.5 1.5C16.0147 1.5 14 3.51472 14 6C14 8.48528 16.0147 10.5 18.5 10.5ZM20 12.3261V18.5C20 19.0523 19.5523 19.5 19 19.5H5C4.44772 19.5 4 19.0523 4 18.5V9C4 8.44772 4.44772 8 5 8H7.5C7.87877 8 8.22504 7.786 8.39443 7.44721L9.34164 5.55279C9.51103 5.214 9.8573 5 10.2361 5H12.0764C12.1863 4.28869 12.4114 3.61546 12.7322 3H10.2361C9.09975 3 8.06096 3.64201 7.55279 4.65836L6.88197 6H5C3.34315 6 2 7.34315 2 9V18.5C2 20.1569 3.34315 21.5 5 21.5H19C20.6569 21.5 22 20.1569 22 18.5V11.4782C21.3945 11.8659 20.7204 12.1559 20 12.3261ZM9.5 13.5C9.5 12.1193 10.6193 11 12 11C13.3807 11 14.5 12.1193 14.5 13.5C14.5 14.8807 13.3807 16 12 16C10.6193 16 9.5 14.8807 9.5 13.5ZM12 9C9.51472 9 7.5 11.0147 7.5 13.5C7.5 15.9853 9.51472 18 12 18C14.4853 18 16.5 15.9853 16.5 13.5C16.5 11.0147 14.4853 9 12 9ZM18.5 3.25C18.9142 3.25 19.25 3.58579 19.25 4V5.25H20.5C20.9142 5.25 21.25 5.58579 21.25 6C21.25 6.41421 20.9142 6.75 20.5 6.75H19.25V8C19.25 8.41421 18.9142 8.75 18.5 8.75C18.0858 8.75 17.75 8.41421 17.75 8V6.75H16.5C16.0858 6.75 15.75 6.41421 15.75 6C15.75 5.58579 16.0858 5.25 16.5 5.25H17.75V4C17.75 3.58579 18.0858 3.25 18.5 3.25Z" fill="black"/>
</svg>
