<svg width="24" height="24" viewBox="0 0 24 24" fill="none" xmlns="http://www.w3.org/2000/svg">
<g clip-path="url(#clip0_35131_1794)">
<path d="M13.25 2C13.25 1.30964 12.6904 0.75 12 0.75C11.3096 0.75 10.75 1.30964 10.75 2V4C10.75 4.69036 11.3096 5.25 12 5.25C12.6904 5.25 13.25 4.69036 13.25 4V2ZM5.81259 4.04507C5.32444 3.55692 4.53298 3.55692 4.04483 4.04507C3.55667 4.53323 3.55667 5.32468 4.04483 5.81284L5.45904 7.22705C5.9472 7.71521 6.73865 7.71521 7.22681 7.22705C7.71496 6.7389 7.71496 5.94744 7.22681 5.45929L5.81259 4.04507ZM19.9552 5.81284C20.4433 5.32468 20.4433 4.53323 19.9552 4.04507C19.467 3.55692 18.6756 3.55692 18.1874 4.04507L16.7732 5.45929C16.285 5.94744 16.285 6.7389 16.7732 7.22705C17.2613 7.71521 18.0528 7.71521 18.541 7.22705L19.9552 5.81284ZM2 10.75C1.30964 10.75 0.75 11.3096 0.75 12C0.75 12.6904 1.30964 13.25 2 13.25H4C4.69036 13.25 5.25 12.6904 5.25 12C5.25 11.3096 4.69036 10.75 4 10.75H2ZM20 10.75C19.3096 10.75 18.75 11.3096 18.75 12C18.75 12.6904 19.3096 13.25 20 13.25H22C22.6904 13.25 23.25 12.6904 23.25 12C23.25 11.3096 22.6904 10.75 22 10.75H20ZM7.22725 18.5408C7.71541 18.0526 7.71541 17.2611 7.22725 16.773C6.7391 16.2848 5.94764 16.2848 5.45948 16.773L4.04527 18.1872C3.55711 18.6754 3.55711 19.4668 4.04527 19.955C4.53343 20.4431 5.32488 20.4431 5.81304 19.955L7.22725 18.5408ZM18.5405 16.773C18.0524 16.2848 17.2609 16.2848 16.7728 16.773C16.2846 17.2611 16.2846 18.0526 16.7728 18.5408L18.187 19.955C18.6751 20.4431 19.4666 20.4431 19.9547 19.955C20.4429 19.4668 20.4429 18.6754 19.9547 18.1872L18.5405 16.773ZM13.25 20C13.25 19.3096 12.6904 18.75 12 18.75C11.3096 18.75 10.75 19.3096 10.75 20V22C10.75 22.6904 11.3096 23.25 12 23.25C12.6904 23.25 13.25 22.6904 13.25 22V20ZM12 7C14.7614 7 17 9.23858 17 12C17 14.7614 14.7614 17 12 17C9.23858 17 7 14.7614 7 12C7 9.23858 9.23858 7 12 7ZM15 12C15 10.3431 13.6569 9 12 9C10.3431 9 9 10.3431 9 12C9 13.6569 10.3431 15 12 15C13.6569 15 15 13.6569 15 12Z" fill="black"/>
</g>
<defs>
<clipPath id="clip0_35131_1794">
<rect width="24" height="24" fill="white"/>
</clipPath>
</defs>
</svg>
