<svg width="24" height="24" viewBox="0 0 24 24" fill="none" xmlns="http://www.w3.org/2000/svg">
<path d="M15 7C13.8954 7 13 7.89543 13 9C13 10.1046 13.8954 11 15 11C16.1046 11 17 10.1046 17 9C17 7.89543 16.1046 7 15 7ZM12.4141 3C11.8836 3 11.3749 3.21071 10.9998 3.58579L2.49985 12.0858C1.7188 12.8668 1.7188 14.1332 2.49985 14.9142L9.08564 21.5C9.86669 22.281 11.133 22.281 11.9141 21.5L20.4141 13C20.7891 12.6249 20.9998 12.1162 20.9998 11.5858V5C20.9998 3.89543 20.1044 3 18.9998 3H12.4141ZM12.4141 5H18.9998V11.5858L10.4998 20.0858L3.91406 13.5L12.4141 5Z" fill="black"/>
</svg>
