<svg width="24" height="24" viewBox="0 0 24 24" fill="none" xmlns="http://www.w3.org/2000/svg">
<path d="M10.9998 3.58579C11.3749 3.21071 11.8836 3 12.4141 3H18.9998C20.1044 3 20.9998 3.89543 20.9998 5V11.5858C20.9998 12.1162 20.7891 12.6249 20.4141 13L11.9141 21.5C11.133 22.281 9.86669 22.281 9.08564 21.5L2.49985 14.9142C1.7188 14.1332 1.7188 12.8668 2.49985 12.0858L10.9998 3.58579ZM15 11C16.1046 11 17 10.1046 17 9C17 7.89543 16.1046 7 15 7C13.8954 7 13 7.89543 13 9C13 10.1046 13.8954 11 15 11Z" fill="black"/>
</svg>
