<svg width="24" height="24" viewBox="0 0 24 24" fill="none" xmlns="http://www.w3.org/2000/svg">
<path d="M10.794 1.5C10.0107 1.5 9.31032 1.94007 8.93696 2.6048C7.99639 4.27939 6.7472 6.06743 5.28548 7.69081C3.67088 9.48398 2.5 11.765 2.5 14.255C2.5 18.8086 6.19142 22.5 10.745 22.5H17.382C18.2432 22.5 19.0541 22.0945 19.5708 21.4056C20.1926 20.5765 20.2926 19.4673 19.8292 18.5403C19.6409 18.1638 19.595 18.0503 19.8686 17.6998C20.6509 16.6974 20.8281 15.3495 20.3313 14.179C20.0759 13.5771 20.2555 13.326 20.6451 12.8066C21.2177 12.043 21.3617 11.0402 21.0271 10.1463C20.6178 9.05346 19.5734 8.32927 18.4064 8.32927H12.4971C12.1947 8.32927 11.9691 8.05074 12.0318 7.75491L12.8238 4.02365L12.8242 4.02185C13.1074 2.72613 12.1207 1.5 10.794 1.5Z" fill="black"/>
</svg>
