<svg width="24" height="24" viewBox="0 0 24 24" fill="none" xmlns="http://www.w3.org/2000/svg">
<path fill-rule="evenodd" clip-rule="evenodd" d="M8.50102 2.35995C8.95773 1.54682 9.81968 1 10.794 1C12.4393 1 13.6632 2.52007 13.313 4.12693L12.5272 7.82927H18.4064C19.7819 7.82927 21.013 8.68286 21.4953 9.97101C22.0138 11.3557 21.4648 12.547 20.6455 13.6394C21.2926 15.1642 21.2294 16.7689 20.1768 18.1175C20.7607 19.2853 20.7811 20.6252 19.9708 21.7056C19.3597 22.5204 18.4005 23 17.382 23H10.745C5.91528 23 2 19.0847 2 14.255C2 11.6056 3.24422 9.2106 4.91391 7.35624C6.34958 5.7618 7.57751 4.00416 8.50102 2.35995ZM10.2448 3.33937C9.25303 5.10509 7.94008 6.98432 6.40019 8.69452C4.95087 10.3041 4 12.2431 4 14.255C4 17.9802 7.01985 21 10.745 21H17.382C18.2823 21 18.892 20.0201 18.4875 19.2111C18.0525 18.341 18.0567 17.5832 18.6861 16.7769C19.1332 16.2041 19.2344 15.4339 18.9505 14.765C18.4676 13.627 18.7576 12.8233 19.4451 11.9066C19.7108 11.5523 19.7776 11.087 19.6223 10.6723C19.4324 10.1653 18.9478 9.82927 18.4064 9.82927H12.4971C11.2409 9.82927 10.3037 8.67229 10.5645 7.44348L11.3586 3.70203C11.5116 3.00522 10.5617 2.77519 10.2448 3.33937Z" fill="black"/>
</svg>
