<svg width="24" height="24" viewBox="0 0 24 24" fill="none" xmlns="http://www.w3.org/2000/svg">
<path d="M2.5 4.5C2.5 3.39543 3.39543 2.5 4.5 2.5H9C10.1046 2.5 11 3.39543 11 4.5V9C11 10.1046 10.1046 11 9 11H4.5C3.39543 11 2.5 10.1046 2.5 9V4.5ZM9 4.5H4.5V9H9V4.5ZM13 4.5C13 3.39543 13.8954 2.5 15 2.5H19.5C20.6046 2.5 21.5 3.39543 21.5 4.5V9C21.5 10.1046 20.6046 11 19.5 11H15C13.8954 11 13 10.1046 13 9V4.5ZM19.5 4.5H15V9H19.5V4.5ZM2.5 15C2.5 13.8954 3.39543 13 4.5 13H9C10.1046 13 11 13.8954 11 15V19.5C11 20.6046 10.1046 21.5 9 21.5H4.5C3.39543 21.5 2.5 20.6046 2.5 19.5V15ZM9 15H4.5V19.5H9V15ZM13 15C13 13.8954 13.8954 13 15 13H19.5C20.6046 13 21.5 13.8954 21.5 15V19.5C21.5 20.6046 20.6046 21.5 19.5 21.5H15C13.8954 21.5 13 20.6046 13 19.5V15ZM19.5 15H15V19.5H19.5V15Z" fill="black"/>
</svg>
