<svg width="24" height="24" viewBox="0 0 24 24" fill="none" xmlns="http://www.w3.org/2000/svg">
<path d="M6 5C6 3.34315 7.34315 2 9 2H15C16.6569 2 18 3.34315 18 5H20C20.5523 5 21 5.44772 21 6C21 6.55229 20.5523 7 20 7H19.9356L19.06 20.133C18.99 21.1836 18.1174 22 17.0644 22H6.93555C5.88263 22 5.01002 21.1836 4.93998 20.133L4.06445 7H4C3.44772 7 3 6.55228 3 6C3 5.44772 3.44772 5 4 5H6ZM15 10C15 9.44772 14.5523 9 14 9C13.4477 9 13 9.44772 13 10V17C13 17.5523 13.4477 18 14 18C14.5523 18 15 17.5523 15 17V10ZM9 4C8.44772 4 8 4.44772 8 5H16C16 4.44772 15.5523 4 15 4H9ZM11 10C11 9.44772 10.5523 9 10 9C9.44772 9 9 9.44772 9 10V17C9 17.5523 9.44772 18 10 18C10.5523 18 11 17.5523 11 17V10Z" fill="black"/>
</svg>
