<svg width="24" height="24" viewBox="0 0 24 24" fill="none" xmlns="http://www.w3.org/2000/svg">
<path d="M11 10C11 9.44772 10.5523 9 10 9C9.44772 9 9 9.44772 9 10V16C9 16.5523 9.44772 17 10 17C10.5523 17 11 16.5523 11 16V10ZM14 9C14.5523 9 15 9.44772 15 10V16C15 16.5523 14.5523 17 14 17C13.4477 17 13 16.5523 13 16V10C13 9.44772 13.4477 9 14 9ZM9 2C7.34315 2 6 3.34315 6 5H4C3.44772 5 3 5.44772 3 6C3 6.55228 3.44772 7 4 7H4.06445L4.93998 20.133C5.01002 21.1836 5.88263 22 6.93555 22H17.0644C18.1174 22 18.99 21.1836 19.06 20.133L19.9356 7H20C20.5523 7 21 6.55229 21 6C21 5.44772 20.5523 5 20 5H18C18 3.34315 16.6569 2 15 2H9ZM6.93555 20L6.06889 7H17.9311L17.0644 20H6.93555ZM8 5C8 4.44772 8.44772 4 9 4H15C15.5523 4 16 4.44772 16 5H8Z" fill="black"/>
</svg>
