<svg width="24" height="24" viewBox="0 0 24 24" fill="none" xmlns="http://www.w3.org/2000/svg">
<path d="M11.7863 3.47851C12.0806 2.59556 12.9069 2 13.8376 2C15.0318 2 15.9999 2.96808 15.9999 4.16228C16 5.5 15.5 8.00001 15.5 8.00001L18.9999 8C20.6567 8 21.9999 9.34315 21.9999 11C21.9999 13.7854 21.4652 16.5294 20.4312 19.1142C19.9756 20.2531 18.8725 21 17.6458 21H9V8C10.1252 6.75513 11.2446 5.1035 11.7863 3.47851ZM7 21H4.00011C2.89555 21 2.00012 20.1046 2.00011 19L2 10C1.99999 8.89545 2.89542 8.00001 3.99999 8.00001L7 8V21Z" fill="black"/>
</svg>
