<svg width="24" height="24" viewBox="0 0 24 24" fill="none" xmlns="http://www.w3.org/2000/svg">
<path d="M11.6623 3.85076C12.0331 2.73844 13.0835 2 14.2411 2C15.7446 2 17 3.21678 17 4.74342C17 5.85021 16.8617 6.91251 16.6805 8H19C20.6569 8 22 9.34315 22 11C22 13.7854 21.4653 16.5294 20.4314 19.1142C19.9758 20.2531 18.8726 21 17.6459 21H5C3.34315 21 2 19.6569 2 18V11C2 9.34315 3.34315 8 5 8H9.03162C10.1009 6.71688 11.1239 5.46616 11.6623 3.85076ZM8.5 10H5C4.44772 10 4 10.4477 4 11V18C4 18.5523 4.44772 19 5 19H8.5V10ZM10.5 19H17.6459C18.0548 19 18.4225 18.751 18.5744 18.3714C19.5141 16.0222 20 13.5317 20 11C20 10.4477 19.5523 10 19 10H15.5C14.8914 10 14.4136 9.4359 14.5136 8.8356C14.7413 7.46941 15 6.13253 15 4.74342C15 4.34433 14.6632 4 14.2411 4C13.9294 4 13.6535 4.20171 13.5597 4.48321C12.9289 6.37544 11.7536 7.85772 10.5 9.36205V19Z" fill="black"/>
</svg>
