<svg width="24" height="24" viewBox="0 0 24 24" fill="none" xmlns="http://www.w3.org/2000/svg">
<path d="M12.7071 8.79283C12.3166 8.40231 11.6834 8.40231 11.2929 8.79283L7.29289 12.7928C6.90237 13.1833 6.90237 13.8165 7.29289 14.207C7.68342 14.5975 8.31658 14.5975 8.70711 14.207L12 10.9141L15.2929 14.207C15.6834 14.5975 16.3166 14.5975 16.7071 14.207C17.0976 13.8165 17.0976 13.1833 16.7071 12.7928L12.7071 8.79283ZM12 21.9999C17.5228 21.9999 21.9999 17.5228 21.9999 11.9999C21.9999 6.47715 17.5228 2 12 2C6.47714 2 2 6.47715 2 11.9999C2 17.5228 6.47714 21.9999 12 21.9999ZM12 19.9999C7.58169 19.9999 3.99995 16.4182 3.99995 11.9999C3.99995 7.58171 7.58169 4 12 4C16.4182 4 20 7.58173 20 12C20 16.4182 16.4182 19.9999 12 19.9999Z" fill="black"/>
</svg>
