<svg width="24" height="24" viewBox="0 0 24 24" fill="none" xmlns="http://www.w3.org/2000/svg">
<path d="M13.2973 1.79161C12.5498 1.15459 11.4504 1.15459 10.7029 1.79161L8.5364 3.63786L5.69898 3.86429C4.71996 3.94242 3.94254 4.71984 3.86441 5.69886L3.63799 8.53628L1.79174 10.7027C1.15471 11.4503 1.15471 12.5497 1.79174 13.2972L3.63799 15.4637L3.86441 18.3011C3.94254 19.2801 4.71996 20.0575 5.69898 20.1357L8.5364 20.3621L10.7029 22.2083C11.4504 22.8454 12.5498 22.8454 13.2973 22.2083L15.4638 20.3621L18.3012 20.1357C19.2802 20.0575 20.0577 19.2801 20.1358 18.3011L20.3622 15.4637L22.2085 13.2972C22.8455 12.5497 22.8455 11.4503 22.2085 10.7027L20.3622 8.53628L20.1358 5.69886C20.0577 4.71984 19.2802 3.94242 18.3012 3.86429L15.4638 3.63786L13.2973 1.79161ZM9.83364 5.16009L12.0001 3.31384L14.1666 5.16009C14.4869 5.43307 14.8852 5.59805 15.3047 5.63153L18.1421 5.85795L18.3686 8.69537C18.402 9.11491 18.567 9.51319 18.84 9.83351L20.6862 12L18.84 14.1664C18.567 14.4868 18.402 14.8851 18.3686 15.3046L18.1421 18.142L15.3047 18.3684C14.8852 18.4019 14.4869 18.5669 14.1666 18.8399L12.0001 20.6861L9.83364 18.8399C9.51331 18.5669 9.11503 18.4019 8.6955 18.3684L5.85808 18.142L5.63165 15.3046C5.59817 14.8851 5.4332 14.4868 5.16021 14.1664L3.31396 12L5.16021 9.83351C5.4332 9.51319 5.59817 9.11491 5.63165 8.69537L5.85808 5.85795L8.6955 5.63153C9.11503 5.59805 9.51331 5.43307 9.83364 5.16009ZM16.2072 10.7071C16.5977 10.3166 16.5977 9.6834 16.2072 9.29287C15.8167 8.90235 15.1835 8.90235 14.793 9.29287L11.0001 13.0858L9.20721 11.2929C8.81669 10.9023 8.18352 10.9023 7.793 11.2929C7.40247 11.6834 7.40247 12.3166 7.793 12.7071L10.293 15.2071C10.6835 15.5976 11.3167 15.5976 11.7072 15.2071L16.2072 10.7071Z" fill="black"/>
</svg>
