<svg width="24" height="24" viewBox="0 0 24 24" fill="none" xmlns="http://www.w3.org/2000/svg">
<path d="M10.7029 1.79161C11.4504 1.15459 12.5498 1.15459 13.2973 1.79161L15.4638 3.63786L18.3012 3.86429C19.2802 3.94242 20.0577 4.71984 20.1358 5.69886L20.3622 8.53628L22.2085 10.7027C22.8455 11.4503 22.8455 12.5497 22.2085 13.2972L20.3622 15.4637L20.1358 18.3011C20.0577 19.2801 19.2802 20.0575 18.3012 20.1357L15.4638 20.3621L13.2973 22.2083C12.5498 22.8454 11.4504 22.8454 10.7029 22.2083L8.5364 20.3621L5.69898 20.1357C4.71996 20.0575 3.94254 19.2801 3.86441 18.3011L3.63799 15.4637L1.79174 13.2972C1.15471 12.5497 1.15471 11.4503 1.79174 10.7027L3.63799 8.53628L3.86441 5.69886C3.94254 4.71984 4.71996 3.94242 5.69898 3.86429L8.5364 3.63786L10.7029 1.79161ZM16.2071 10.7071C16.5976 10.3166 16.5976 9.68342 16.2071 9.29289C15.8166 8.90237 15.1834 8.90237 14.7929 9.29289L11 13.0858L9.20711 11.2929C8.81658 10.9024 8.18342 10.9024 7.79289 11.2929C7.40237 11.6834 7.40237 12.3166 7.79289 12.7071L10.2929 15.2071C10.6834 15.5976 11.3166 15.5976 11.7071 15.2071L16.2071 10.7071Z" fill="black"/>
</svg>
