<svg width="24" height="24" viewBox="0 0 24 24" fill="none" xmlns="http://www.w3.org/2000/svg">
<path d="M2.10701 9.41645C3.47685 7.15835 6.41971 4 11.9999 4C17.5801 4 20.523 7.15835 21.8928 9.41645C22.861 11.0125 22.861 12.9875 21.8928 14.5835C20.523 16.8417 17.5801 20 11.9999 20C6.41971 20 3.47685 16.8417 2.10701 14.5836C1.13881 12.9875 1.13881 11.0125 2.10701 9.41645ZM9 12C9 10.3431 10.3431 9 12 9C13.6569 9 15 10.3431 15 12C15 13.6569 13.6569 15 12 15C10.3431 15 9 13.6569 9 12ZM12 7C9.23858 7 7 9.23858 7 12C7 14.7614 9.23858 17 12 17C14.7614 17 17 14.7614 17 12C17 9.23858 14.7614 7 12 7Z" fill="black"/>
</svg>
