<svg width="24" height="24" viewBox="0 0 24 24" fill="none" xmlns="http://www.w3.org/2000/svg">
<path d="M3.81697 10.4538C4.95209 8.58258 7.33427 6 11.9999 6C16.6655 6 19.0477 8.58258 20.1828 10.4538C20.7643 11.4123 20.7643 12.5877 20.1828 13.5462C19.0477 15.4174 16.6655 18 11.9999 18C7.33427 18 4.9521 15.4174 3.81697 13.5462C3.23549 12.5877 3.23549 11.4123 3.81697 10.4538ZM11.9999 4C6.41971 4 3.47685 7.15835 2.10701 9.41645C1.13881 11.0125 1.13881 12.9875 2.10701 14.5836C3.47685 16.8417 6.41971 20 11.9999 20C17.5801 20 20.523 16.8417 21.8928 14.5835C22.861 12.9875 22.861 11.0125 21.8928 9.41645C20.523 7.15835 17.5801 4 11.9999 4ZM9.9999 12C9.9999 10.8954 10.8953 10 11.9999 10C13.1045 10 13.9999 10.8954 13.9999 12C13.9999 13.1046 13.1045 14 11.9999 14C10.8953 14 9.9999 13.1046 9.9999 12ZM11.9999 8C9.79076 8 7.9999 9.79086 7.9999 12C7.9999 14.2091 9.79076 16 11.9999 16C14.209 16 15.9999 14.2091 15.9999 12C15.9999 9.79086 14.209 8 11.9999 8Z" fill="black"/>
</svg>
