<svg width="24" height="24" viewBox="0 0 24 24" fill="none" xmlns="http://www.w3.org/2000/svg">
<path d="M7 7C7 4.23858 9.23858 2 12 2C14.7614 2 17 4.23858 17 7V11C17 13.7614 14.7614 16 12 16C9.23858 16 7 13.7614 7 11V7ZM5 10.5C5 9.94772 4.55228 9.5 4 9.5C3.44772 9.5 3 9.94772 3 10.5V11C3 15.6326 6.50005 19.4476 11 19.9451V22C11 22.5523 11.4477 23 12 23C12.5523 23 13 22.5523 13 22V19.9451C17.5 19.4476 21 15.6326 21 11V10.5C21 9.94772 20.5523 9.5 20 9.5C19.4477 9.5 19 9.94772 19 10.5V11C19 14.866 15.866 18 12 18C8.13401 18 5 14.866 5 11V10.5Z" fill="black"/>
</svg>
