<svg width="24" height="24" viewBox="0 0 24 24" fill="none" xmlns="http://www.w3.org/2000/svg">
<path d="M14.186 14.25H9.814C9.72736 12.7521 9.72736 11.2479 9.814 9.75H14.186C14.2726 11.2479 14.2726 12.7521 14.186 14.25ZM12 2C6.47715 2 2 6.47715 2 12C2 17.5228 6.47715 22 12 22C17.5228 22 22 17.5228 22 12C22 6.47715 17.5228 2 12 2ZM8.91956 4.99143C8.97634 4.73009 9.15692 4.51518 9.40997 4.42864C9.98673 4.2314 10.4967 4.78872 10.3696 5.38488C10.1878 6.23771 10.0384 7.20516 9.93263 8.25005H14.0675C13.9618 7.20514 13.8123 6.23767 13.6306 5.38483C13.5035 4.78871 14.0134 4.23141 14.5901 4.42864C14.8432 4.51517 15.0238 4.73008 15.0806 4.99141C15.2925 5.96665 15.4603 7.06542 15.5748 8.25005H18.5648C18.8748 8.25005 19.1615 8.41697 19.2895 8.69929C19.5205 9.20853 19.1197 9.75005 18.5606 9.75005H15.6885C15.7695 11.2071 15.7695 12.7929 15.6885 14.25H18.5606C19.1197 14.25 19.5205 14.7915 19.2895 15.3008C19.1615 15.5831 18.8748 15.75 18.5648 15.75H15.5748C15.4603 16.9346 15.2925 18.0334 15.0806 19.0086C15.0238 19.2699 14.8432 19.4848 14.5902 19.5714C14.0135 19.7686 13.5035 19.2113 13.6306 18.6152C13.8123 17.7623 13.9618 16.7949 14.0675 15.75H9.93263C10.0384 16.7949 10.1878 17.7623 10.3696 18.6151C10.4967 19.2113 9.98667 19.7687 9.40992 19.5714C9.1569 19.4848 8.97636 19.2699 8.91957 19.0086C8.70765 18.0334 8.5399 16.9346 8.42531 15.75H5.43534C5.12535 15.75 4.83862 15.5831 4.71058 15.3008C4.47963 14.7915 4.88031 14.25 5.43946 14.25H8.31168C8.2307 12.7929 8.2307 11.2071 8.31168 9.75005H5.43946C4.88031 9.75005 4.47963 9.20851 4.71058 8.69929C4.83862 8.41697 5.12534 8.25005 5.43534 8.25005H8.42531C8.53989 7.06543 8.70765 5.96667 8.91956 4.99143Z" fill="black"/>
</svg>
