<svg width="24" height="24" viewBox="0 0 24 24" fill="none" xmlns="http://www.w3.org/2000/svg">
<path d="M7.70029 16.2999C8.08689 16.6865 8.71369 16.6865 9.10029 16.2999L12.0003 13.3999L14.9003 16.2999C15.2869 16.6865 15.9137 16.6865 16.3003 16.2999C16.6869 15.9133 16.6869 15.2865 16.3003 14.8999L13.4003 11.9999L16.3003 9.09991C16.6869 8.71331 16.6869 8.08651 16.3003 7.69991C15.9137 7.31331 15.2869 7.31331 14.9003 7.69991L12.0003 10.5999L9.10029 7.69991C8.71369 7.31331 8.08689 7.31331 7.70029 7.69991C7.31369 8.08651 7.31369 8.71331 7.70029 9.09991L10.6003 11.9999L7.70029 14.8999C7.31369 15.2865 7.31369 15.9133 7.70029 16.2999ZM12.0002 22C6.47731 22 2.00002 17.5228 2.00006 11.9999C2.0001 6.47708 6.47732 1.99997 12.0001 1.99997C17.523 1.99997 22.0003 6.47717 22.0002 12C22.0002 17.5228 17.523 21.9999 12.0002 22ZM12.0003 19.9999C16.4186 19.9999 20.0003 16.4182 20.0003 11.9999C20.0003 7.58163 16.4186 3.99991 12.0003 3.99991C7.58201 3.99991 4.00029 7.58163 4.00029 11.9999C4.00029 16.4182 7.58201 19.9999 12.0003 19.9999Z" fill="black"/>
</svg>
